<svg xmlns="http://www.w3.org/2000/svg" width="200" height="40" viewBox="0 0 200 40">
    <defs>
        <clipPath id="clip-path">
            <path id="사각형_4" data-name="사각형 4" class="cls-1" d="M0 0h198.492v40H0z"/>
        </clipPath>
        <clipPath id="clip-path-2">
            <path id="패스_11" data-name="패스 11" class="cls-1" d="M3.605 30.531a20.859 20.859 0 0 0 7.571 6.786l.079.044c.156.081.315.155.471.233s.316.158.476.232l.079.034a20.843 20.843 0 0 0 8.548 1.88h.224q.614 0 1.232-.042a20.9 20.9 0 0 0 14.4-7.064L34.5 30.7a18.116 18.116 0 0 1-3.937 3.353l-1.648-2.621a14.945 14.945 0 0 1-22.251-8.261L3 24.3a18.8 18.8 0 0 1-.484-9.065L.38 14.82a20.89 20.89 0 0 0 3.225 15.711" transform="translate(0 -14.82)"/>
        </clipPath>
        <clipPath id="clip-path-3">
            <path id="패스_12" data-name="패스 12" class="cls-1" d="M31.434 12.2a12.429 12.429 0 0 1 1.892 7.045l-4.354-.162a8.018 8.018 0 0 1-3.746 6.494l3.685 5.863 1.648 2.621a18.037 18.037 0 0 0 5.674-24.88z" transform="translate(-25.226 -9.181)"/>
        </clipPath>
        <clipPath id="clip-path-4">
            <path id="패스_13" data-name="패스 13" class="cls-1" d="M20.957 0A18.792 18.792 0 0 0 3 24.3l3.665-1.125 3.347-1.028a11.541 11.541 0 0 1-.5-2.937l3.433-.127c0-.1-.007-.2-.007-.3a8.022 8.022 0 0 1 8.021-8.022c.1 0 .2 0 .3.007a8 8 0 0 1 3.637 1.024L27.028 8l3.14-5.581A18.7 18.7 0 0 0 20.957 0z" transform="translate(-2.175)"/>
        </clipPath>
        <clipPath id="clip-path-5">
            <path id="패스_14" data-name="패스 14" class="cls-1" d="M24.891 11.792a8.029 8.029 0 0 1 4.088 6.991c0 .1 0 .2-.007.3l4.354.162a12.4 12.4 0 0 0-5.4-10.688c-.3-.2-.6-.385-.9-.558z" transform="translate(-24.891 -7.996)"/>
        </clipPath>
        <clipPath id="clip-path-6">
            <path id="패스_15" data-name="패스 15" class="cls-1" d="M9.51 19.206a11.541 11.541 0 0 0 .5 2.937 11.433 11.433 0 0 0 11.242 8.089V26.8c-.1 0-.2.008-.3.008a8.01 8.01 0 0 1-8.014-7.726z" transform="translate(-9.51 -19.079)"/>
        </clipPath>
        <style>
            .cls-1{fill:#fff}
        </style>
    </defs>
    <g id="Logo_w">
        <g id="그룹_15" data-name="그룹 15">
            <g id="그룹_2" data-name="그룹 2">
                <g id="그룹_1" data-name="그룹 1" style="clip-path:url(#clip-path)">
                    <path id="패스_1" data-name="패스 1" class="cls-1" d="M66.825 11.19H50.287A1.732 1.732 0 0 0 48.589 13v1.551h6.866V26.7a2.027 2.027 0 0 0 2.288 1.923h2.215V14.549h5.169a1.733 1.733 0 0 0 1.7-1.809z" transform="translate(.317 .073)"/>
                    <path id="패스_2" data-name="패스 2" class="cls-1" d="M118.332 13.15v5.02h-8.415v-6.98h-1.734c-2.81 0-2.845 1.96-2.845 1.96v15.511h2.292a2.027 2.027 0 0 0 2.288-1.923v-5.057h8.415v6.98h2.292a2.027 2.027 0 0 0 2.288-1.923V11.19h-1.734c-2.809 0-2.845 1.96-2.845 1.96" transform="translate(.688 .073)"/>
                    <path id="패스_3" data-name="패스 3" class="cls-1" d="M95.084 25.229h-.026a2.846 2.846 0 0 1-.362-.079 2.65 2.65 0 0 1-.182-.053h-.009a3.558 3.558 0 0 1-.8-.365 3.762 3.762 0 0 1-1.49-1.891 7.667 7.667 0 0 1-.52-2.809 7.029 7.029 0 0 1 .5-2.72 3.685 3.685 0 0 1 2.474-2.431 3.791 3.791 0 0 1 .813-.118h.02c.083-.005.157-.015.245-.015h5.267a1.771 1.771 0 0 0 1.7-1.883v-1.634h-7.676a9.354 9.354 0 0 0-2.141.22 8.374 8.374 0 0 0-1.995.778 6.635 6.635 0 0 0-2.918 3.249 9.973 9.973 0 0 0-1 4.5 10.873 10.873 0 0 0 1.034 4.657 6.58 6.58 0 0 0 2.957 3.133 7.934 7.934 0 0 0 3.654.89h6.5a1.764 1.764 0 0 0 1.7-1.848v-1.55h-7.28a3.274 3.274 0 0 1-.465-.036" transform="translate(.568 .074)"/>
                    <path id="패스_4" data-name="패스 4" class="cls-1" d="M167.829 17.029a3.4 3.4 0 0 1 .813-1.222 3.318 3.318 0 0 1 1.145-.845 4.257 4.257 0 0 1 1.476-.22h5.818a1.771 1.771 0 0 0 1.7-1.884V11.23H170.6a9.411 9.411 0 0 0-2.141.22 8.373 8.373 0 0 0-1.995.778 6.635 6.635 0 0 0-2.918 3.249 9.973 9.973 0 0 0-1 4.5 10.873 10.873 0 0 0 1.034 4.657 6.578 6.578 0 0 0 2.957 3.132 7.923 7.923 0 0 0 3.655.89h7a1.765 1.765 0 0 0 1.7-1.847v-1.55h-8a2.943 2.943 0 0 1-1.331-.3 5.78 5.78 0 0 1-1.07-.921 3.654 3.654 0 0 1-.7-1.182l-.148-.558-.037-.625h9.586a1.775 1.775 0 0 0 1.7-1.883v-1.619h-11.247a2.629 2.629 0 0 1 .184-1.142" transform="translate(1.062 .074)"/>
                    <path id="패스_5" data-name="패스 5" class="cls-1" d="M197.31 19.8v-1.629h-11.247a2.629 2.629 0 0 1 .184-1.142 3.4 3.4 0 0 1 .813-1.222 3.319 3.319 0 0 1 1.145-.844 4.231 4.231 0 0 1 1.476-.221h5.819a1.771 1.771 0 0 0 1.7-1.883V11.23h-8.182a9.4 9.4 0 0 0-2.14.22 8.363 8.363 0 0 0-2 .778 6.64 6.64 0 0 0-2.918 3.249 9.986 9.986 0 0 0-1 4.5 10.888 10.888 0 0 0 1.04 4.662 6.585 6.585 0 0 0 2.957 3.133 7.934 7.934 0 0 0 3.655.889h7a1.764 1.764 0 0 0 1.7-1.847v-1.55h-8a2.943 2.943 0 0 1-1.331-.3 5.741 5.741 0 0 1-1.07-.921 3.691 3.691 0 0 1-.7-1.182l-.148-.558-.037-.625h9.586a1.774 1.774 0 0 0 1.7-1.883" transform="translate(1.182 .074)"/>
                    <path id="패스_6" data-name="패스 6" class="cls-1" d="M124.7 13v1.55h6.867V26.7a2.027 2.027 0 0 0 2.288 1.923h2.215V14.548h5.169a1.732 1.732 0 0 0 1.7-1.808v-1.55H126.4a1.732 1.732 0 0 0-1.7 1.81" transform="translate(.815 .073)"/>
                    <path id="패스_7" data-name="패스 7" class="cls-1" d="M161.044 16.627v-.118a5.276 5.276 0 0 0-5.276-5.276h-8.2c-2.8 0-2.832 1.951-2.832 1.951v15.438h2.637s1.921.038 1.921-2.33V21.9h3.81l2.877 5.253a3.711 3.711 0 0 0 2.684 1.465h3.2l-3.936-7.186a5.276 5.276 0 0 0 3.111-4.809m-6.17 1.561h-5.579v-3.24h5.579a1.62 1.62 0 1 1 0 3.24" transform="translate(.945 .074)"/>
                    <path id="패스_8" data-name="패스 8" class="cls-1" d="M69.032 26.715a1.855 1.855 0 0 0 1.855 1.855h12.465a1.765 1.765 0 0 0 1.7-1.847v-1.55h-16.02z" transform="translate(.451 .165)"/>
                    <path id="패스_9" data-name="패스 9" class="cls-1" d="M84.939 12.857V11.23H70.888a1.855 1.855 0 0 0-1.856 1.855v1.655H83.24a1.772 1.772 0 0 0 1.7-1.883" transform="translate(.451 .074)"/>
                    <path id="패스_10" data-name="패스 10" class="cls-1" d="M69.032 18.126v3.511h14.32a1.776 1.776 0 0 0 1.7-1.884v-1.627z" transform="translate(.451 .119)"/>
                </g>
            </g>
            <g id="그룹_4" data-name="그룹 4" transform="translate(0 15.08)">
                <g id="그룹_3" data-name="그룹 3" style="clip-path:url(#clip-path-2)">
                    <path id="사각형_5" data-name="사각형 5" class="cls-1" transform="rotate(-57.842 10.231 19.666)" d="M0 0h40.96v44.857H0z"/>
                </g>
            </g>
            <g id="그룹_6" data-name="그룹 6" transform="translate(25.226 9.441)">
                <g id="그룹_5" data-name="그룹 5" style="clip-path:url(#clip-path-3)">
                    <path id="사각형_6" data-name="사각형 6" class="cls-1" transform="rotate(-52.461 9.863 20.017)" d="M0 0h28.12v26.081H0z"/>
                </g>
            </g>
            <g id="그룹_8" data-name="그룹 8" transform="translate(2.175)">
                <g id="그룹_7" data-name="그룹 7" style="clip-path:url(#clip-path-4)">
                    <path id="사각형_7" data-name="사각형 7" class="cls-1" transform="rotate(-18.901 3.934 23.641)" d="M0 0h34.354v32.054H0z"/>
                </g>
            </g>
            <g id="그룹_10" data-name="그룹 10" transform="translate(24.891 8.069)">
                <g id="그룹_9" data-name="그룹 9" style="clip-path:url(#clip-path-5)">
                    <path id="사각형_8" data-name="사각형 8" class="cls-1" transform="rotate(-32.565 3.026 10.363)" d="M0 0h13.237v14.066H0z"/>
                </g>
            </g>
            <g id="그룹_12" data-name="그룹 12" transform="translate(9.51 19.252)">
                <g id="그룹_11" data-name="그룹 11" style="clip-path:url(#clip-path-6)">
                    <path id="사각형_9" data-name="사각형 9" class="cls-1" transform="rotate(-65.97 5.12 7.889)" d="M0 0h15.018v15.289H0z"/>
                </g>
            </g>
        </g>
    </g>
</svg>
