<svg id="mobile_icon" xmlns="http://www.w3.org/2000/svg" width="12" height="20" viewBox="0 0 12 20">
    <defs>
        <clipPath id="clip-path">
            <path id="사각형_359" data-name="사각형 359" style="fill:none" d="M0 0h12v20H0z"/>
        </clipPath>
        <style>
            .cls-4{fill:#222}
        </style>
    </defs>
    <g id="그룹_224" data-name="그룹 224" style="clip-path:url(#clip-path)">
        <path id="패스_414" data-name="패스 414" d="M9.671 18.9H2.329A1.233 1.233 0 0 1 1.1 17.662V2.339a1.233 1.233 0 0 1 1.229-1.233h7.342A1.233 1.233 0 0 1 10.9 2.339v15.323A1.233 1.233 0 0 1 9.671 18.9" style="fill:#fff"/>
        <path id="패스_415" data-name="패스 415" class="cls-4" d="M9.676 20H2.323A2.336 2.336 0 0 1 0 17.656V2.344A2.336 2.336 0 0 1 2.323 0h7.353A2.337 2.337 0 0 1 12 2.344v15.312A2.337 2.337 0 0 1 9.676 20M2.323 2.211a.133.133 0 0 0-.132.133v15.312a.133.133 0 0 0 .132.134h7.353a.133.133 0 0 0 .132-.134V2.344a.133.133 0 0 0-.132-.133z"/>
        <path id="패스_416" data-name="패스 416" class="cls-4" d="M10.9 3.347H1.1V2.338a1.233 1.233 0 0 1 1.229-1.233h7.342A1.233 1.233 0 0 1 10.9 2.338z"/>
        <path id="패스_417" data-name="패스 417" class="cls-4" d="M1.1 16.4h9.8v1.009a1.233 1.233 0 0 1-1.233 1.233H2.329A1.233 1.233 0 0 1 1.1 17.408z"/>
    </g>
</svg>
