<svg id="Business_ic_03" xmlns="http://www.w3.org/2000/svg" width="80" height="80" viewBox="0 0 80 80">
    <defs>
        <clipPath id="clip-path">
            <path id="사각형_262" data-name="사각형 262" style="fill:none" d="M0 0h80v80H0z"/>
        </clipPath>
        <style>
            .cls-3{fill:#9ce7ff}.cls-5{fill:#222}
        </style>
    </defs>
    <g id="icon">
        <g id="그룹_149" data-name="그룹 149" style="clip-path:url(#clip-path)">
            <path id="패스_198" data-name="패스 198" class="cls-3" d="M18.6 3.5a.828.828 0 0 1 .827.827V9.79a.833.833 0 0 1-1.666 0V4.327a.829.829 0 0 1 .828-.827zm0-3.5h-.011a4.328 4.328 0 0 0-4.328 4.327V9.79a4.328 4.328 0 0 0 4.328 4.328h.011a4.328 4.328 0 0 0 4.331-4.328V4.327A4.327 4.327 0 0 0 18.6 0"/>
            <path id="사각형_250" data-name="사각형 250" class="cls-3" transform="translate(31.052)" d="M0 0h3.623v14.118H0z"/>
            <path id="패스_199" data-name="패스 199" class="cls-3" d="M47.134 3.5a.828.828 0 0 1 .827.827V9.79a.833.833 0 0 1-1.666 0V4.327a.829.829 0 0 1 .828-.827zm0-3.5h-.011a4.328 4.328 0 0 0-4.328 4.327V9.79a4.328 4.328 0 0 0 4.328 4.328h.011a4.328 4.328 0 0 0 4.327-4.328V4.327A4.327 4.327 0 0 0 47.134 0"/>
            <path id="사각형_251" data-name="사각형 251" class="cls-3" transform="translate(59.59)" d="M0 0h3.623v14.118H0z"/>
            <path id="패스_200" data-name="패스 200" class="cls-3" d="M75.673 3.5a.828.828 0 0 1 .827.827V9.79a.833.833 0 0 1-1.666 0V4.327a.829.829 0 0 1 .828-.827zm0-3.5h-.011a4.328 4.328 0 0 0-4.328 4.327V9.79a4.328 4.328 0 0 0 4.328 4.328h.011A4.328 4.328 0 0 0 80 9.79V4.327A4.327 4.327 0 0 0 75.673 0"/>
            <path id="사각형_252" data-name="사각형 252" class="cls-3" transform="translate(16.787 21.96)" d="M0 0h3.623v14.118H0z"/>
            <path id="패스_201" data-name="패스 201" class="cls-3" d="M4.339 25.461a.828.828 0 0 1 .827.827v5.463a.833.833 0 0 1-1.666 0v-5.463a.829.829 0 0 1 .828-.827zm0-3.5h-.011A4.328 4.328 0 0 0 0 26.288v5.463a4.328 4.328 0 0 0 4.328 4.328h.011a4.328 4.328 0 0 0 4.327-4.328v-5.463a4.327 4.327 0 0 0-4.327-4.327"/>
            <path id="사각형_253" data-name="사각형 253" class="cls-3" transform="translate(73.856 21.96)" d="M0 0h3.623v14.118H0z"/>
            <path id="패스_202" data-name="패스 202" class="cls-3" d="M61.407 25.461a.828.828 0 0 1 .827.827v5.463a.833.833 0 0 1-1.666 0v-5.463a.829.829 0 0 1 .828-.827zm0-3.5H61.4a4.328 4.328 0 0 0-4.328 4.327v5.463a4.328 4.328 0 0 0 4.328 4.328h.011a4.328 4.328 0 0 0 4.327-4.328v-5.463a4.327 4.327 0 0 0-4.327-4.327"/>
            <path id="사각형_254" data-name="사각형 254" class="cls-3" transform="translate(2.522 43.921)" d="M0 0h3.623v14.118H0z"/>
            <path id="패스_203" data-name="패스 203" class="cls-3" d="M18.6 47.422a.828.828 0 0 1 .827.827v5.463a.833.833 0 0 1-1.666 0v-5.463a.829.829 0 0 1 .828-.827zm0-3.5h-.011a4.328 4.328 0 0 0-4.328 4.327v5.463a4.328 4.328 0 0 0 4.328 4.328h.011a4.328 4.328 0 0 0 4.327-4.328v-5.463a4.327 4.327 0 0 0-4.327-4.327"/>
            <path id="사각형_255" data-name="사각형 255" class="cls-3" transform="translate(31.052 43.921)" d="M0 0h3.623v14.118H0z"/>
            <path id="패스_204" data-name="패스 204" class="cls-3" d="M75.673 47.422a.828.828 0 0 1 .827.827v5.463a.833.833 0 0 1-1.666 0v-5.463a.829.829 0 0 1 .828-.827zm0-3.5h-.011a4.328 4.328 0 0 0-4.328 4.327v5.463a4.328 4.328 0 0 0 4.328 4.328h.011A4.328 4.328 0 0 0 80 53.712v-5.463a4.327 4.327 0 0 0-4.327-4.327"/>
            <path id="사각형_256" data-name="사각형 256" class="cls-3" transform="translate(16.787 65.882)" d="M0 0h3.623v14.118H0z"/>
            <path id="패스_205" data-name="패스 205" class="cls-3" d="M4.339 69.382a.828.828 0 0 1 .827.828v5.462a.833.833 0 0 1-1.666 0V70.21a.829.829 0 0 1 .828-.828zm0-3.5h-.011A4.328 4.328 0 0 0 0 70.21v5.462A4.327 4.327 0 0 0 4.328 80h.011a4.326 4.326 0 0 0 4.327-4.327V70.21a4.327 4.327 0 0 0-4.327-4.328"/>
            <path id="사각형_257" data-name="사각형 257" class="cls-3" transform="translate(45.317 65.882)" d="M0 0h3.623v14.118H0z"/>
            <path id="패스_206" data-name="패스 206" class="cls-3" d="M32.869 69.382a.828.828 0 0 1 .827.828v5.462a.833.833 0 0 1-1.666 0V70.21a.829.829 0 0 1 .828-.828zm0-3.5h-.011a4.328 4.328 0 0 0-4.328 4.328v5.462A4.327 4.327 0 0 0 32.858 80h.011a4.326 4.326 0 0 0 4.331-4.328V70.21a4.327 4.327 0 0 0-4.327-4.328"/>
            <path id="사각형_258" data-name="사각형 258" class="cls-3" transform="translate(73.856 65.882)" d="M0 0h3.623v14.118H0z"/>
            <path id="패스_207" data-name="패스 207" class="cls-3" d="M61.407 69.382a.828.828 0 0 1 .827.828v5.462a.833.833 0 0 1-1.666 0V70.21a.829.829 0 0 1 .828-.828zm0-3.5H61.4a4.328 4.328 0 0 0-4.328 4.328v5.462A4.327 4.327 0 0 0 61.4 80h.011a4.326 4.326 0 0 0 4.327-4.327V70.21a4.327 4.327 0 0 0-4.327-4.328"/>
            <path id="패스_208" data-name="패스 208" d="M67.378 40a27.335 27.335 0 1 1-27.335-27.264A27.3 27.3 0 0 1 67.378 40" style="fill:#fff"/>
            <path id="패스_209" data-name="패스 209" class="cls-5" d="M40.043 68.515A28.515 28.515 0 1 1 68.628 40a28.582 28.582 0 0 1-28.585 28.515m0-54.53A26.015 26.015 0 1 0 66.128 40a26.08 26.08 0 0 0-26.085-26.015"/>
            <path id="패스_210" data-name="패스 210" class="cls-5" d="M40.043 68.515C33.348 68.515 28.1 55.991 28.1 40s5.244-28.516 11.939-28.516S51.982 24.011 51.982 40s-5.244 28.515-11.939 28.515m0-54.53C35.578 13.985 30.6 24.67 30.6 40s4.974 26.014 9.439 26.014S49.482 55.331 49.482 40s-4.974-26.016-9.439-26.016"/>
            <path id="사각형_259" data-name="사각형 259" class="cls-5" transform="translate(12.623 38.664)" d="M0 0h54.669v2.5H0z"/>
            <path id="사각형_260" data-name="사각형 260" class="cls-5" transform="translate(16.545 24.818)" d="M0 0h46.996v2.5H0z"/>
            <path id="사각형_261" data-name="사각형 261" class="cls-5" transform="translate(16.547 52.682)" d="M0 0h46.995v2.5H0z"/>
        </g>
        <path id="사각형_249" data-name="사각형 249" class="cls-3" transform="translate(2.522)" d="M0 0h3.622v14.117H0z"/>
    </g>
</svg>
