<svg xmlns="http://www.w3.org/2000/svg" width="80" height="80" viewBox="0 0 80 80">
    <defs>
        <clipPath id="clip-path">
            <path id="사각형_234" data-name="사각형 234" transform="translate(0 -.449)" style="fill:none" d="M0 0h80v80H0z"/>
        </clipPath>
        <style>
            .cls-3{fill:#222}.cls-5{fill:#5ad8ff}
        </style>
    </defs>
    <g id="Business_ic_04" transform="translate(0 .119)">
        <g id="icon" transform="translate(0 .33)" style="clip-path:url(#clip-path)">
            <path id="패스_173" data-name="패스 173" class="cls-3" d="M45.253 58.842H23.315v-1.258c0-4.966-5.545-10.045-5.6-10.095A28.854 28.854 0 0 1 9.9 27.418C9.9 12.3 20.841 0 34.283 0s24.379 12.3 24.379 27.418a28.816 28.816 0 0 1-7.742 20.005c-.124.116-5.667 5.194-5.667 10.161zm-19.508-2.516h17.076c.743-5.587 6.1-10.484 6.345-10.7a26.648 26.648 0 0 0 6.98-18.2c0-13.731-9.807-24.9-21.863-24.9S12.42 13.687 12.42 27.418a26.679 26.679 0 0 0 7.049 18.272c.18.157 5.535 5.049 6.276 10.636" transform="translate(2.459 -.337)"/>
            <path id="패스_174" data-name="패스 174" class="cls-3" d="M32.8 68.686h-1.246a13.037 13.037 0 0 1-13.02-13.026v-9.278a1.257 1.257 0 0 1 1.257-1.258h24.77a1.258 1.258 0 0 1 1.258 1.258v9.278A13.038 13.038 0 0 1 32.8 68.686M21.049 47.64v8.02a10.519 10.519 0 0 0 10.505 10.509H32.8A10.52 10.52 0 0 0 43.3 55.66v-8.02z" transform="translate(4.601 10.865)"/>
            <path id="패스_175" data-name="패스 175" class="cls-3" d="M43.654 55.178H20.39a1.258 1.258 0 0 1 0-2.516h23.264a1.258 1.258 0 0 1 0 2.516" transform="translate(4.75 12.736)"/>
            <path id="사각형_233" data-name="사각형 233" class="cls-3" transform="translate(46.802 23.898)" d="M0 0h23.976v2.516H0z"/>
            <path id="패스_176" data-name="패스 176" class="cls-3" d="M54.878 15.563H39.171v-2.516h13.191V6.395h8.744v2.517h-6.228z" transform="translate(9.724 1.251)"/>
            <path id="패스_177" data-name="패스 177" class="cls-3" d="M61.106 36.275h-8.744v-6.651h-13.19v-2.516h15.705v6.651h6.229z" transform="translate(9.724 6.393)"/>
            <path id="패스_178" data-name="패스 178" d="M41.639 20.713h-2.552a17.6 17.6 0 0 0-2.344-5.648l1.807-1.809a.969.969 0 0 0 0-1.372l-4.069-4.072a.971.971 0 0 0-1.372 0L31.3 9.621a17.6 17.6 0 0 0-5.646-2.345V4.724a.971.971 0 0 0-.971-.971h-5.752a.97.97 0 0 0-.97.971v2.552a17.579 17.579 0 0 0-5.646 2.345l-1.809-1.809a.971.971 0 0 0-1.372 0l-4.069 4.072a.969.969 0 0 0 0 1.372l1.809 1.809a17.576 17.576 0 0 0-2.345 5.648H1.978a.971.971 0 0 0-.971.971v5.757a.97.97 0 0 0 .971.97h2.55a17.576 17.576 0 0 0 2.345 5.648l-1.808 1.809a.97.97 0 0 0 0 1.373l4.069 4.071a.969.969 0 0 0 1.372 0l1.809-1.812a17.579 17.579 0 0 0 5.646 2.345V44.4a.97.97 0 0 0 .97.971h5.754a.971.971 0 0 0 .971-.971v-2.552A17.6 17.6 0 0 0 31.3 39.5l1.807 1.809a.969.969 0 0 0 1.372 0l4.069-4.071a.97.97 0 0 0 0-1.373l-1.807-1.809a17.6 17.6 0 0 0 2.344-5.648h2.551a.97.97 0 0 0 .97-.97v-5.754a.97.97 0 0 0-.97-.971" transform="translate(.25 .595)" style="fill:#fff"/>
            <path id="패스_179" data-name="패스 179" class="cls-3" d="M24.936 46.879h-5.755a2.23 2.23 0 0 1-2.227-2.229v-1.57a18.721 18.721 0 0 1-4.194-1.743l-1.113 1.115a2.235 2.235 0 0 1-3.151 0l-4.07-4.071a2.23 2.23 0 0 1 0-3.153l1.114-1.113a18.814 18.814 0 0 1-1.74-4.194H2.228A2.232 2.232 0 0 1 0 27.691v-5.757A2.231 2.231 0 0 1 2.228 19.7H3.8a18.765 18.765 0 0 1 1.74-4.189L4.426 14.4a2.23 2.23 0 0 1 0-3.153L8.5 7.174a2.282 2.282 0 0 1 3.151 0l1.109 1.113a18.789 18.789 0 0 1 4.194-1.743v-1.57a2.231 2.231 0 0 1 2.227-2.229h5.756a2.232 2.232 0 0 1 2.228 2.229v1.57a18.756 18.756 0 0 1 4.193 1.743l1.113-1.113a2.282 2.282 0 0 1 3.151 0l4.069 4.071a2.23 2.23 0 0 1 0 3.153l-1.113 1.113A18.765 18.765 0 0 1 40.32 19.7h1.569a2.231 2.231 0 0 1 2.228 2.229v5.757a2.232 2.232 0 0 1-2.228 2.229H40.32a18.814 18.814 0 0 1-1.743 4.194l1.113 1.115a2.229 2.229 0 0 1 0 3.151l-4.071 4.072a2.233 2.233 0 0 1-3.149 0l-1.116-1.116a18.654 18.654 0 0 1-4.192 1.743v1.57a2.231 2.231 0 0 1-2.228 2.229m-5.467-2.516h5.179v-3.27l.987-.218a16.283 16.283 0 0 0 5.241-2.177l.851-.542 2.318 2.318 3.662-3.662-2.318-2.32.542-.851a16.315 16.315 0 0 0 2.178-5.245l.218-.985H41.6v-5.184h-3.271l-.218-.985a16.3 16.3 0 0 0-2.178-5.245l-.542-.851 2.318-2.319-3.663-3.665-2.318 2.32-.853-.543a16.3 16.3 0 0 0-5.241-2.179l-.986-.218V5.263h-5.179v3.273l-.985.218a16.339 16.339 0 0 0-5.244 2.179l-.851.543-2.318-2.32-3.662 3.664 2.318 2.32-.542.851a16.3 16.3 0 0 0-2.178 5.245l-.218.985H2.515V27.4h3.273l.218.985a16.315 16.315 0 0 0 2.178 5.245l.542.851-2.318 2.32 3.662 3.662 2.318-2.318.851.542a16.278 16.278 0 0 0 5.243 2.177l.986.218z" transform="translate(0 .345)"/>
            <path id="패스_180" data-name="패스 180" class="cls-3" d="M20.372 36.708a13.583 13.583 0 1 1 13.579-13.584 13.6 13.6 0 0 1-13.579 13.584m0-24.649a11.066 11.066 0 1 0 11.062 11.065 11.077 11.077 0 0 0-11.062-11.066" transform="translate(1.687 2.032)"/>
            <path id="패스_181" data-name="패스 181" class="cls-5" d="M19.253 29.958A7.953 7.953 0 1 1 27.2 22a7.961 7.961 0 0 1-7.949 7.954m0-13.389A5.436 5.436 0 1 0 24.687 22a5.44 5.44 0 0 0-5.434-5.435" transform="translate(2.806 3.152)"/>
            <path id="패스_182" data-name="패스 182" class="cls-5" d="M60.878 13.621a5.186 5.186 0 1 1 5.184-5.186 5.19 5.19 0 0 1-5.184 5.186m0-7.855a2.669 2.669 0 1 0 2.669 2.669 2.671 2.671 0 0 0-2.669-2.669" transform="translate(13.826 .47)"/>
            <path id="패스_183" data-name="패스 183" class="cls-5" d="M60.878 26.642a5.186 5.186 0 1 1 5.184-5.188 5.192 5.192 0 0 1-5.184 5.188m0-7.856a2.669 2.669 0 1 0 2.669 2.669 2.671 2.671 0 0 0-2.669-2.669" transform="translate(13.826 3.702)"/>
            <path id="패스_184" data-name="패스 184" class="cls-5" d="M60.878 39.661a5.186 5.186 0 1 1 5.184-5.186 5.191 5.191 0 0 1-5.184 5.186m0-7.855a2.669 2.669 0 1 0 2.669 2.669 2.671 2.671 0 0 0-2.669-2.669" transform="translate(13.826 6.934)"/>
        </g>
    </g>
</svg>
