<svg id="Solution_ic_w_03" xmlns="http://www.w3.org/2000/svg" width="54.301" height="64" viewBox="0 0 54.301 64">
    <defs>
        <clipPath id="clip-path">
            <path id="사각형_310" data-name="사각형 310" style="fill:none" d="M0 0h54.301v64H0z"/>
        </clipPath>
        <style>
            .cls-3{fill:#fff}
        </style>
    </defs>
    <g id="그룹_163" data-name="그룹 163" style="clip-path:url(#clip-path)">
        <path id="패스_258" data-name="패스 258" class="cls-3" d="M34.963 48.175H19.339a1 1 0 0 1-1-1c0-3.447-4.418-7.025-4.463-7.061a19.6 19.6 0 1 1 26.606-.048c-.1.084-4.519 3.662-4.519 7.109a1 1 0 0 1-1 1m-14.707-2h13.789c.652-4.005 4.936-7.467 5.132-7.623a17.386 17.386 0 0 0 5.573-12.825 17.6 17.6 0 1 0-35.2 0A17.414 17.414 0 0 0 15.181 38.6c.144.111 4.424 3.569 5.075 7.574"/>
        <path id="패스_259" data-name="패스 259" class="cls-3" d="M28.381 38.038h-2.46a1.62 1.62 0 0 1-1.621-1.617v-1.867a8.631 8.631 0 0 1-1.042-.433l-1.318 1.321a1.618 1.618 0 0 1-2.287 0l-1.74-1.74a1.619 1.619 0 0 1 0-2.287l1.321-1.32a8.931 8.931 0 0 1-.432-1.042h-1.868a1.619 1.619 0 0 1-1.617-1.619v-2.46a1.619 1.619 0 0 1 1.617-1.617H18.8a8.761 8.761 0 0 1 .432-1.042l-1.321-1.321a1.62 1.62 0 0 1 0-2.287l1.74-1.739a1.618 1.618 0 0 1 2.287 0l1.321 1.32a8.761 8.761 0 0 1 1.042-.432v-1.868a1.62 1.62 0 0 1 1.618-1.617h2.46A1.619 1.619 0 0 1 30 15.988v1.868a8.76 8.76 0 0 1 1.042.432l1.321-1.32a1.607 1.607 0 0 1 1.144-.474 1.6 1.6 0 0 1 1.143.475l1.739 1.738a1.618 1.618 0 0 1 0 2.287l-1.321 1.321a8.6 8.6 0 0 1 .432 1.042h1.868a1.619 1.619 0 0 1 1.617 1.617v2.46a1.619 1.619 0 0 1-1.617 1.619H35.5a8.6 8.6 0 0 1-.432 1.042l1.321 1.32a1.618 1.618 0 0 1 0 2.289l-1.739 1.738a1.6 1.6 0 0 1-1.142.474 1.607 1.607 0 0 1-1.144-.474l-1.324-1.321a8.631 8.631 0 0 1-1.04.433v1.867a1.619 1.619 0 0 1-1.617 1.617m-2.078-2H28v-3.02l.764-.185a6.767 6.767 0 0 0 1.934-.8l.672-.41 2.137 2.138 1.2-1.2-2.137-2.136.41-.672a6.726 6.726 0 0 0 .8-1.933l.185-.764h3.021v-1.7h-3.023l-.185-.764a6.726 6.726 0 0 0-.8-1.933l-.41-.672L34.7 19.85l-1.2-1.2-2.137 2.136-.671-.409a6.791 6.791 0 0 0-1.934-.8L28 19.392v-3.021h-1.7v3.021l-.765.185a6.773 6.773 0 0 0-1.933.8l-.672.41-2.13-2.135-1.2 1.2 2.137 2.138-.41.672a6.754 6.754 0 0 0-.8 1.933l-.185.764h-3.025v1.7h3.02l.186.763a6.761 6.761 0 0 0 .8 1.935l.41.672-2.133 2.129 1.2 1.2 2.137-2.138.672.41a6.778 6.778 0 0 0 1.933.8l.764.185zm8.671-3.75zm-15.648 0"/>
        <path id="패스_260" data-name="패스 260" d="M31.147 26.2a4 4 0 1 1-4-4 4 4 0 0 1 4 4" style="opacity:.5;fill:#fff"/>
        <path id="패스_261" data-name="패스 261" class="cls-3" d="M27.618 64h-.935a9.86 9.86 0 0 1-9.849-9.848v-6.977a1 1 0 0 1 1-1h18.633a1 1 0 0 1 1 1v6.977A9.86 9.86 0 0 1 27.618 64m-8.784-15.825v5.977A7.857 7.857 0 0 0 26.683 62h.935a7.857 7.857 0 0 0 7.849-7.848v-5.977z"/>
        <path id="패스_262" data-name="패스 262" class="cls-3" d="M35.9 55.251H18.4a1 1 0 0 1 0-2h17.5a1 1 0 0 1 0 2"/>
        <path id="패스_263" data-name="패스 263" class="cls-3" d="M13.546 50.652A27.152 27.152 0 1 1 54.3 27.151a26.972 26.972 0 0 1-7.952 19.2l-1.414-1.414A25.151 25.151 0 1 0 2 27.151a25.252 25.252 0 0 0 12.55 21.771z"/>
        <path id="패스_264" data-name="패스 264" class="cls-3" d="M46 46.447a1 1 0 0 1-.992-.874l-.517-4.058a1 1 0 0 1 .866-1.118 1.014 1.014 0 0 1 1.118.866l.39 3.066 3.066-.391a1 1 0 0 1 .252 1.985l-4.057.516a1.066 1.066 0 0 1-.126.008"/>
    </g>
</svg>
