<svg id="Solution_ic_w_01" xmlns="http://www.w3.org/2000/svg" width="64" height="64" viewBox="0 0 64 64">
    <defs>
        <clipPath id="clip-path">
            <path id="사각형_296" data-name="사각형 296" class="cls-1" d="M0 0h64v64H0z"/>
        </clipPath>
        <style>
            .cls-1,.cls-3{fill:#fff}.cls-3{opacity:.5}
        </style>
    </defs>
    <path id="사각형_280" data-name="사각형 280" class="cls-1" transform="translate(5.134 46.62)" d="M0 0h53.731v1.966H0z"/>
    <path id="사각형_281" data-name="사각형 281" class="cls-1" transform="translate(44.149 50.084)" d="M0 0h2.191v2.171H0z"/>
    <path id="사각형_282" data-name="사각형 282" class="cls-1" transform="translate(52.913 50.084)" d="M0 0h2.191v2.171H0z"/>
    <path id="사각형_283" data-name="사각형 283" class="cls-1" transform="translate(48.531 50.084)" d="M0 0h2.191v2.171H0z"/>
    <g id="그룹_154" data-name="그룹 154">
        <g id="그룹_153" data-name="그룹 153" style="clip-path:url(#clip-path)">
            <path id="패스_224" data-name="패스 224" class="cls-1" d="M54.56 55.719H9.439a5.279 5.279 0 0 1-5.3-5.249V29.525h1.987V50.47a3.3 3.3 0 0 0 3.313 3.283H54.56a3.3 3.3 0 0 0 3.313-3.283V29.525h1.984V50.47a5.279 5.279 0 0 1-5.3 5.249"/>
            <path id="사각형_284" data-name="사각형 284" class="cls-1" transform="translate(19.059 62.034)" d="M0 0h28.72v1.966H0z"/>
            <path id="패스_225" data-name="패스 225" class="cls-1" d="M44.3 64H22.54V53.753H44.3zm-19.775-1.966h17.788v-6.315H24.525z"/>
            <path id="사각형_285" data-name="사각형 285" class="cls-3" transform="translate(9.879 33.769)" d="M0 0h12.836v9.83H0z"/>
            <path id="사각형_286" data-name="사각형 286" class="cls-3" transform="translate(43.587 33.769)" d="M0 0h11.168v1.966H0z"/>
            <path id="사각형_287" data-name="사각형 287" class="cls-3" transform="translate(25.418 37.701)" d="M0 0h29.337v1.966H0z"/>
            <path id="사각형_288" data-name="사각형 288" class="cls-3" transform="translate(25.418 41.633)" d="M0 0h29.337v1.966H0z"/>
            <path id="패스_227" data-name="패스 227" class="cls-1" d="M34.269 34.476H29.73a1.752 1.752 0 0 1-1.757-1.741v-1.226a14.862 14.862 0 0 1-3.306-1.362l-.879.87a1.773 1.773 0 0 1-2.485 0l-3.209-3.18a1.728 1.728 0 0 1 0-2.463l.878-.87a14.6 14.6 0 0 1-1.372-3.276h-1.241a1.751 1.751 0 0 1-1.759-1.741v-4.5a1.751 1.751 0 0 1 1.756-1.741H17.6a14.615 14.615 0 0 1 1.375-3.276l-.881-.87a1.726 1.726 0 0 1 0-2.462L21.3 3.459a1.771 1.771 0 0 1 2.484 0l.88.872a14.818 14.818 0 0 1 3.306-1.363V1.742A1.752 1.752 0 0 1 29.73 0h4.539a1.751 1.751 0 0 1 1.756 1.742v1.225a14.845 14.845 0 0 1 3.307 1.363l.878-.871a1.77 1.77 0 0 1 2.485 0l3.21 3.18a1.729 1.729 0 0 1 0 2.463l-.878.87a14.615 14.615 0 0 1 1.373 3.276h1.238a1.752 1.752 0 0 1 1.762 1.741v4.5a1.751 1.751 0 0 1-1.757 1.741H46.4a14.6 14.6 0 0 1-1.374 3.27l.879.871a1.729 1.729 0 0 1 0 2.463l-3.209 3.179a1.771 1.771 0 0 1-2.484 0l-.879-.871a14.889 14.889 0 0 1-3.307 1.362v1.226a1.75 1.75 0 0 1-1.756 1.741m-4.313-1.961h4.084v-2.557l.777-.171a12.909 12.909 0 0 0 4.135-1.7l.671-.423 1.828 1.811 2.889-2.862-1.828-1.812.427-.665a12.691 12.691 0 0 0 1.718-4.1l.172-.77h2.582v-4.047H44.83l-.172-.77a12.691 12.691 0 0 0-1.718-4.1l-.427-.665 1.828-1.809-2.889-2.862-1.828 1.812-.671-.42a12.909 12.909 0 0 0-4.135-1.7l-.777-.171V1.966h-4.084v2.557l-.777.171a12.91 12.91 0 0 0-4.135 1.7l-.671.424-1.828-1.81-2.889 2.863 1.828 1.811-.427.665a12.691 12.691 0 0 0-1.718 4.1l-.172.77h-2.581v4.048h2.581l.172.77a12.691 12.691 0 0 0 1.718 4.1l.427.665-1.828 1.812 2.889 2.862 1.828-1.811.671.423a12.91 12.91 0 0 0 4.135 1.7l.777.171z"/>
            <path id="패스_228" data-name="패스 228" class="cls-1" d="M34.918 24.983H29.08V7.487h5.838zm-3.853-1.966h1.87V9.453h-1.87z"/>
            <path id="패스_229" data-name="패스 229" class="cls-1" d="M42.276 24.983h-5.838V11.369h5.838zm-3.854-1.966h1.87v-9.682h-1.87z"/>
            <path id="패스_230" data-name="패스 230" class="cls-1" d="M27.561 24.983h-5.838V13.406h5.838zm-3.854-1.966h1.87v-7.645h-1.87z"/>
            <path id="사각형_289" data-name="사각형 289" class="cls-1" transform="translate(19.825 23.017)" d="M0 0h24.349v1.966H0z"/>
            <path id="패스_231" data-name="패스 231" class="cls-1" d="M2.9 13.179A2.877 2.877 0 1 1 5.8 10.3a2.892 2.892 0 0 1-2.9 2.876m0-3.787a.911.911 0 1 0 .919.911.915.915 0 0 0-.919-.908"/>
            <path id="사각형_290" data-name="사각형 290" class="cls-1" transform="translate(4.814 9.32)" d="M0 0h10.148v1.966H0z"/>
            <path id="패스_232" data-name="패스 232" class="cls-1" d="M2.9 27.1a2.877 2.877 0 1 1 2.9-2.877A2.893 2.893 0 0 1 2.9 27.1m0-3.787a.911.911 0 1 0 .919.91.914.914 0 0 0-.919-.91"/>
            <path id="사각형_291" data-name="사각형 291" class="cls-1" transform="translate(4.814 23.242)" d="M0 0h10.148v1.966H0z"/>
            <path id="패스_233" data-name="패스 233" class="cls-1" d="M6.724 20.14a2.877 2.877 0 1 1 2.9-2.876 2.892 2.892 0 0 1-2.9 2.876m0-3.787a.911.911 0 1 0 .919.911.915.915 0 0 0-.919-.911"/>
            <path id="사각형_292" data-name="사각형 292" class="cls-1" transform="translate(8.636 16.281)" d="M0 0h6.959v1.966H0z"/>
            <path id="패스_234" data-name="패스 234" class="cls-1" d="M61.1 13.19a2.877 2.877 0 1 1 2.9-2.876 2.892 2.892 0 0 1-2.9 2.876m0-3.787a.911.911 0 1 0 .919.911.915.915 0 0 0-.919-.914"/>
            <path id="사각형_293" data-name="사각형 293" class="cls-1" transform="translate(49.037 9.33)" d="M0 0h10.149v1.966H0z"/>
            <path id="패스_235" data-name="패스 235" class="cls-1" d="M61.1 27.112a2.877 2.877 0 1 1 2.9-2.877 2.893 2.893 0 0 1-2.9 2.877m0-3.787a.911.911 0 1 0 .919.91.914.914 0 0 0-.919-.91"/>
            <path id="사각형_294" data-name="사각형 294" class="cls-1" transform="translate(49.037 23.252)" d="M0 0h10.149v1.966H0z"/>
            <path id="패스_236" data-name="패스 236" class="cls-1" d="M57.275 20.151a2.877 2.877 0 1 1 2.9-2.876 2.892 2.892 0 0 1-2.9 2.876m0-3.787a.911.911 0 1 0 .919.911.915.915 0 0 0-.919-.911"/>
            <path id="사각형_295" data-name="사각형 295" class="cls-1" transform="translate(48.404 16.292)" d="M0 0h6.96v1.966H0z"/>
        </g>
    </g>
</svg>
