<svg id="Solution_ic_02" xmlns="http://www.w3.org/2000/svg" width="64" height="64" viewBox="0 0 64 64">
    <defs>
        <clipPath id="clip-path">
            <path id="사각형_309" data-name="사각형 309" class="cls-1" d="M0 0h64v64H0z"/>
        </clipPath>
        <clipPath id="clip-path-2">
            <path id="사각형_299" data-name="사각형 299" class="cls-1" transform="translate(26.356 27.556)" d="M0 0h11.287v3.749H0z"/>
        </clipPath>
        <clipPath id="clip-path-3">
            <path id="사각형_300" data-name="사각형 300" class="cls-1" transform="translate(29.178 31.547)" d="M0 0h5.643v2.58H0z"/>
        </clipPath>
        <style>
            .cls-1{fill:none}.cls-2{fill:#222}.cls-4{fill:#fff}.cls-5{isolation:isolate}.cls-7{fill:#5ad8ff}
        </style>
    </defs>
    <path id="패스_237" data-name="패스 237" class="cls-2" d="M43.489 59.736H20.511L4.263 43.489V20.511L20.511 4.264h22.978l16.247 16.247v22.978zm-22.152-1.995h21.326l15.078-15.078V21.337L42.663 6.259H21.337L6.259 21.337v21.326z"/>
    <g id="그룹_162" data-name="그룹 162">
        <g id="그룹_161" data-name="그룹 161" style="clip-path:url(#clip-path)">
            <path id="패스_238" data-name="패스 238" class="cls-4" d="M39.014 48.819H24.987a2.341 2.341 0 0 1-2.342-2.342V17.523a2.341 2.341 0 0 1 2.342-2.342h14.027a2.342 2.342 0 0 1 2.342 2.342v28.954a2.342 2.342 0 0 1-2.342 2.342" transform="translate(.355)"/>
            <path id="패스_239" data-name="패스 239" class="cls-2" d="M39.014 49.817H24.986a3.343 3.343 0 0 1-3.339-3.34V17.522a3.343 3.343 0 0 1 3.339-3.339h14.028a3.343 3.343 0 0 1 3.339 3.339v28.955a3.343 3.343 0 0 1-3.339 3.34M24.986 16.178a1.346 1.346 0 0 0-1.344 1.344v28.955a1.346 1.346 0 0 0 1.344 1.344h14.028a1.346 1.346 0 0 0 1.344-1.344V17.522a1.346 1.346 0 0 0-1.344-1.344z"/>
            <path id="사각형_297" data-name="사각형 297" class="cls-2" transform="translate(22.644 18.423)" d="M0 0h18.711v1.995H0z"/>
            <path id="사각형_298" data-name="사각형 298" class="cls-2" transform="translate(22.644 42.278)" d="M0 0h18.711v1.995H0z"/>
            <g id="그룹_157" data-name="그룹 157" class="cls-5" transform="translate(0 -.278)">
                <g id="그룹_156" data-name="그룹 156">
                    <g id="그룹_155" data-name="그룹 155" style="clip-path:url(#clip-path-2)">
                        <path id="패스_240" data-name="패스 240" class="cls-7" d="m27.767 31.305-1.411-1.411a7.98 7.98 0 0 1 11.287 0l-1.41 1.411a5.987 5.987 0 0 0-8.466 0"/>
                    </g>
                </g>
            </g>
            <g id="그룹_160" data-name="그룹 160" class="cls-5" transform="translate(0 -.278)">
                <g id="그룹_159" data-name="그룹 159">
                    <g id="그룹_158" data-name="그룹 158" style="clip-path:url(#clip-path-3)">
                        <path id="패스_241" data-name="패스 241" class="cls-7" d="M33.411 34.127a2.045 2.045 0 0 0-2.822 0l-1.41-1.411a3.992 3.992 0 0 1 5.643 0z"/>
                    </g>
                </g>
            </g>
            <path id="패스_242" data-name="패스 242" class="cls-4" d="M25.125 5.261A4.264 4.264 0 1 1 20.862 1a4.264 4.264 0 0 1 4.263 4.264"/>
            <path id="패스_243" data-name="패스 243" class="cls-2" d="M20.862 10.522a5.261 5.261 0 1 1 5.261-5.261 5.267 5.267 0 0 1-5.261 5.261m0-8.527a3.266 3.266 0 1 0 3.266 3.266A3.27 3.27 0 0 0 20.862 2"/>
            <path id="패스_244" data-name="패스 244" class="cls-4" d="M47.426 5.261A4.264 4.264 0 1 1 43.163 1a4.264 4.264 0 0 1 4.263 4.264"/>
            <path id="패스_245" data-name="패스 245" class="cls-2" d="M43.163 10.522a5.261 5.261 0 1 1 5.26-5.261 5.267 5.267 0 0 1-5.26 5.261m0-8.527a3.266 3.266 0 1 0 3.265 3.266A3.27 3.27 0 0 0 43.163 2"/>
            <path id="패스_246" data-name="패스 246" class="cls-4" d="M5.261 39.432A4.264 4.264 0 1 1 1 43.7a4.264 4.264 0 0 1 4.263-4.264"/>
            <path id="패스_247" data-name="패스 247" class="cls-2" d="M5.261 48.957a5.261 5.261 0 1 1 5.261-5.257 5.267 5.267 0 0 1-5.261 5.261m0-8.527A3.265 3.265 0 1 0 8.527 43.7a3.27 3.27 0 0 0-3.266-3.27"/>
            <path id="패스_248" data-name="패스 248" class="cls-4" d="M5.261 17.131A4.264 4.264 0 1 1 1 21.4a4.264 4.264 0 0 1 4.263-4.264"/>
            <path id="패스_249" data-name="패스 249" class="cls-2" d="M5.261 26.656a5.261 5.261 0 1 1 5.261-5.256 5.267 5.267 0 0 1-5.261 5.261m0-8.527A3.266 3.266 0 1 0 8.527 21.4a3.27 3.27 0 0 0-3.266-3.266"/>
            <path id="패스_250" data-name="패스 250" class="cls-4" d="M58.739 39.432a4.264 4.264 0 1 1-4.264 4.268 4.263 4.263 0 0 1 4.264-4.264"/>
            <path id="패스_251" data-name="패스 251" class="cls-2" d="M58.739 48.957A5.261 5.261 0 1 1 64 43.7a5.267 5.267 0 0 1-5.261 5.261m0-8.527a3.265 3.265 0 1 0 3.266 3.266 3.27 3.27 0 0 0-3.266-3.266"/>
            <path id="패스_252" data-name="패스 252" class="cls-4" d="M58.739 17.131a4.264 4.264 0 1 1-4.264 4.269 4.263 4.263 0 0 1 4.264-4.264"/>
            <path id="패스_253" data-name="패스 253" class="cls-2" d="M58.739 26.656A5.261 5.261 0 1 1 64 21.4a5.267 5.267 0 0 1-5.261 5.261m0-8.527a3.266 3.266 0 1 0 3.266 3.266 3.27 3.27 0 0 0-3.266-3.266"/>
            <path id="패스_254" data-name="패스 254" class="cls-4" d="M25.125 58.739a4.264 4.264 0 1 1-4.263-4.264 4.264 4.264 0 0 1 4.263 4.264"/>
            <path id="패스_255" data-name="패스 255" class="cls-2" d="M20.862 64a5.261 5.261 0 1 1 5.261-5.261A5.267 5.267 0 0 1 20.862 64m0-8.527a3.266 3.266 0 1 0 3.266 3.266 3.27 3.27 0 0 0-3.266-3.266"/>
            <path id="패스_256" data-name="패스 256" class="cls-4" d="M47.426 58.739a4.264 4.264 0 1 1-4.263-4.264 4.264 4.264 0 0 1 4.263 4.264"/>
            <path id="패스_257" data-name="패스 257" class="cls-2" d="M43.163 64a5.261 5.261 0 1 1 5.26-5.261A5.267 5.267 0 0 1 43.163 64m0-8.527a3.266 3.266 0 1 0 3.265 3.266 3.27 3.27 0 0 0-3.265-3.266"/>
            <path id="사각형_301" data-name="사각형 301" class="cls-2" transform="rotate(-21.792 35.64 -51.245)" d="M0 0h1.996v3.219H0z"/>
            <path id="사각형_302" data-name="사각형 302" class="cls-2" transform="rotate(-66.777 22.644 5.414)" d="M0 0h1.996v11.285H0z"/>
            <path id="사각형_303" data-name="사각형 303" class="cls-2" transform="rotate(-21.769 111.448 -2.403)" d="M0 0h11.087v1.995H0z"/>
            <path id="사각형_304" data-name="사각형 304" class="cls-2" transform="rotate(-66.8 52.155 10.781)" d="M0 0h3.163v1.995H0z"/>
            <path id="사각형_305" data-name="사각형 305" class="cls-2" transform="rotate(-21.77 155.418 -74.333)" d="M0 0h1.995v3.411H0z"/>
            <path id="사각형_306" data-name="사각형 306" class="cls-2" transform="rotate(-66.778 51.713 -13.746)" d="M0 0h1.996v11.02H0z"/>
            <path id="사각형_307" data-name="사각형 307" class="cls-2" transform="rotate(-21.77 92.48 -100.756)" d="M0 0h11.654v1.995H0z"/>
            <path id="사각형_308" data-name="사각형 308" class="cls-2" transform="rotate(-66.775 28.95 -24.452)" d="M0 0h3.043v1.995H0z"/>
            <circle id="타원_1" data-name="타원 1" class="cls-7" cx="1" cy="1" r="1" transform="translate(31 34.722)"/>
        </g>
    </g>
</svg>
