<svg id="Solution_ic_w_02" xmlns="http://www.w3.org/2000/svg" width="64" height="64" viewBox="0 0 64 64">
    <defs>
        <clipPath id="clip-path">
            <path id="사각형_378" data-name="사각형 378" class="cls-1" d="M0 0h64v64H0z"/>
        </clipPath>
        <clipPath id="clip-path-3">
            <path id="사각형_373" data-name="사각형 373" class="cls-1" transform="translate(26.356 27.278)" d="M0 0h11.287v3.749H0z"/>
        </clipPath>
        <clipPath id="clip-path-5">
            <path id="사각형_375" data-name="사각형 375" class="cls-1" transform="translate(29.178 31.269)" d="M0 0h5.644v2.58H0z"/>
        </clipPath>
        <clipPath id="clip-path-6">
            <path id="사각형_374" data-name="사각형 374" class="cls-1" transform="translate(29.178 31.269)" d="M0 0h5.643v2.58H0z"/>
        </clipPath>
        <clipPath id="clip-path-7">
            <path id="사각형_376" data-name="사각형 376" class="cls-1" transform="translate(31 34.722)" d="M0 0h2v2H0z"/>
        </clipPath>
        <style>
            .cls-1{fill:none}.cls-2{clip-path:url(#clip-path)}.cls-3{fill:#fff}.cls-4{opacity:.5}.cls-5{clip-path:url(#clip-path-3)}
        </style>
    </defs>
    <g id="그룹_269" data-name="그룹 269" class="cls-2">
        <g id="그룹_268" data-name="그룹 268">
            <g id="그룹_267" data-name="그룹 267" class="cls-2">
                <path id="패스_443" data-name="패스 443" class="cls-3" d="M39.014 14.183H24.986a3.343 3.343 0 0 0-3.339 3.339v28.955a3.343 3.343 0 0 0 3.339 3.34h14.028a3.343 3.343 0 0 0 3.339-3.34V17.522a3.343 3.343 0 0 0-3.339-3.339m-14.028 1.995h14.028a1.346 1.346 0 0 1 1.344 1.344v.9H23.642v-.9a1.346 1.346 0 0 1 1.344-1.344m15.372 26.1H23.642v-21.86h16.716zm-1.344 5.543H24.986a1.346 1.346 0 0 1-1.344-1.344v-2.2h16.716v2.2a1.346 1.346 0 0 1-1.344 1.344"/>
                <g id="그룹_258" data-name="그룹 258" class="cls-4">
                    <g id="그룹_257" data-name="그룹 257">
                        <g id="그룹_256" data-name="그룹 256" class="cls-5">
                            <g id="그룹_255" data-name="그룹 255">
                                <g id="그룹_254" data-name="그룹 254" class="cls-5">
                                    <path id="패스_444" data-name="패스 444" class="cls-3" d="m27.767 31.027-1.411-1.411a7.979 7.979 0 0 1 11.285 0l-1.41 1.411a5.988 5.988 0 0 0-8.466 0"/>
                                </g>
                            </g>
                        </g>
                    </g>
                </g>
                <g id="그룹_263" data-name="그룹 263" class="cls-4">
                    <g id="그룹_262" data-name="그룹 262">
                        <g id="그룹_261" data-name="그룹 261" style="clip-path:url(#clip-path-5)">
                            <g id="그룹_260" data-name="그룹 260">
                                <g id="그룹_259" data-name="그룹 259" style="clip-path:url(#clip-path-6)">
                                    <path id="패스_445" data-name="패스 445" class="cls-3" d="M33.411 33.849a2.045 2.045 0 0 0-2.822 0l-1.41-1.411a3.993 3.993 0 0 1 5.643 0z"/>
                                </g>
                            </g>
                        </g>
                    </g>
                </g>
                <g id="그룹_266" data-name="그룹 266" class="cls-4">
                    <g id="그룹_265" data-name="그룹 265">
                        <g id="그룹_264" data-name="그룹 264" style="clip-path:url(#clip-path-7)">
                            <path id="패스_446" data-name="패스 446" class="cls-3" d="M32 34.722a1 1 0 1 1-1 1 1 1 0 0 1 1-1"/>
                        </g>
                    </g>
                </g>
                <path id="패스_447" data-name="패스 447" class="cls-3" d="M64 21.4a5.26 5.26 0 0 0-5.261-5.261 5.2 5.2 0 0 0-2.643.737l-8.617-8.622a5.232 5.232 0 0 0 .944-2.993A5.259 5.259 0 0 0 38 4.263H26.023a5.258 5.258 0 1 0-9.491 3.979L7.9 16.87a5.25 5.25 0 1 0-3.641 9.685v11.981a5.258 5.258 0 0 0 1 10.421 5.214 5.214 0 0 0 3.287-1.187l7.984 7.984a5.257 5.257 0 1 0 9.49 3.978H38a5.258 5.258 0 0 0 10.421-1 5.228 5.228 0 0 0-.942-2.994l7.971-7.971a5.211 5.211 0 0 0 3.287 1.184A5.267 5.267 0 0 0 64 43.7a5.259 5.259 0 0 0-4.264-5.161v-11.98A5.263 5.263 0 0 0 64 21.4m-1.995 0a3.266 3.266 0 1 1-3.266-3.266 3.266 3.266 0 0 1 3.266 3.266M43.163 2a3.27 3.27 0 0 1 3.265 3.261A3.266 3.266 0 1 1 43.163 2m-22.3 0A3.264 3.264 0 1 1 17.6 5.261 3.27 3.27 0 0 1 20.862 2M2 21.4a3.266 3.266 0 1 1 3.266 3.266A3.266 3.266 0 0 1 2 21.4m3.263 25.564a3.265 3.265 0 0 1 0-6.53 3.267 3.267 0 0 1 0 6.534m15.6 15.041a3.266 3.266 0 1 1 3.266-3.266 3.266 3.266 0 0 1-3.266 3.266M38 57.741H26.022a5.251 5.251 0 0 0-2.143-3.3l.9-2.1-1.834-.786-.887 2.07a5.135 5.135 0 0 0-4.1.731l-8.12-8.114a5.205 5.205 0 0 0 .684-2.542 5.253 5.253 0 0 0-.1-1.018l9.453-3.782-.74-1.853-9.47 3.782a5.254 5.254 0 0 0-3.406-2.3v-11.97a5.253 5.253 0 0 0 3.285-2.125l9.567 4.1.789-1.834-9.532-4.09a5.238 5.238 0 0 0 .156-1.215 5.213 5.213 0 0 0-1.116-3.2l8.548-8.548a5.227 5.227 0 0 0 3.955.773l.857 2.143 1.853-.741-.867-2.168a5.259 5.259 0 0 0 2.269-3.391H38a5.244 5.244 0 0 0 2.8 3.681L40 11.8l1.833.787.9-2.1c.142.012.278.043.423.043a5.222 5.222 0 0 0 2.889-.874l8.542 8.542a5.1 5.1 0 0 0-.78 5l-9.836 3.928.74 1.853 10.144-4.051a5.223 5.223 0 0 0 2.879 1.631v11.977a5.248 5.248 0 0 0-3.692 2.821l-9.307-3.993-.78 1.836 9.563 4.1c-.01.133-.04.26-.04.4a5.2 5.2 0 0 0 .684 2.546l-8.108 8.104a5.126 5.126 0 0 0-4.662-.545l-.874-2.188-1.853.74.992 2.484a5.225 5.225 0 0 0-1.657 2.9m8.426 1a3.266 3.266 0 1 1-3.265-3.267 3.266 3.266 0 0 1 3.265 3.267zM62.005 43.7a3.265 3.265 0 1 1-3.266-3.266 3.266 3.266 0 0 1 3.266 3.266"/>
            </g>
        </g>
    </g>
</svg>
