<svg xmlns="http://www.w3.org/2000/svg" width="100" height="100" viewBox="0 0 100 100">
    <defs>
        <clipPath id="clip-path">
            <path id="사각형_534" data-name="사각형 534" class="cls-1" d="M0 0h56v56H0z"/>
        </clipPath>
        <clipPath id="clip-path-3">
            <path id="사각형_529" data-name="사각형 529" class="cls-1" d="M0 0h40.107v18.266H0z"/>
        </clipPath>
        <linearGradient id="linear-gradient" y1="1" x2="1" y2="1" gradientUnits="objectBoundingBox">
            <stop offset="0" stop-color="#00baff"/>
            <stop offset="1" stop-color="#329efe"/>
        </linearGradient>
        <style>
            .cls-1{fill:none}.cls-3{clip-path:url(#clip-path)}.cls-6{fill:#fff}
        </style>
    </defs>
    <g id="business_icon_02_w" transform="translate(-1015 -1158)">
        <circle id="타원_6" data-name="타원 6" cx="50" cy="50" r="50" transform="translate(1015 1158)" style="fill:url(#linear-gradient)"/>
        <g id="그룹_379" data-name="그룹 379" transform="translate(1036.999 1180)">
            <g id="그룹_378" data-name="그룹 378" class="cls-3">
                <g id="그룹_377" data-name="그룹 377">
                    <g id="그룹_376" data-name="그룹 376" class="cls-3">
                        <g id="그룹_375" data-name="그룹 375" transform="translate(7.641 12.29)" style="opacity:.5">
                            <g id="그룹_374" data-name="그룹 374">
                                <g id="그룹_373" data-name="그룹 373" style="clip-path:url(#clip-path-3)">
                                    <path id="패스_2566" data-name="패스 2566" class="cls-6" d="M50.027 26.031h-3.1l-3.994-.715-2.521-1.83-1.681-2.766-.644-3.113H10.862v18.266h40.107V25.421zM29.82 30.388l-4.02-4.06 1.18-1.192L29.82 28l5.027-5.08 1.18 1.192z" transform="translate(-10.862 -17.607)"/>
                                </g>
                            </g>
                        </g>
                        <path id="패스_2567" data-name="패스 2567" class="cls-6" d="M51.031 43.053H3.112a.835.835 0 0 0-.785.558l-2.2 6.2a.852.852 0 0 0-.049.285v1.29a4.368 4.368 0 0 0 1.76 3.514v9.05a.838.838 0 0 0 .834.842h17.591a.838.838 0 0 0 .833-.843V54.9a4.367 4.367 0 0 0 1.759-3.522v-1.29a.852.852 0 0 0-.049-.285l-1.8-5.068h30.025v1.9a2.969 2.969 0 0 1-2.949 2.98H25.04V51.3h11.389v6.521H23.33v1.686h17.89v-1.685H38.1V51.3h9.983a4.647 4.647 0 0 0 4.617-4.665v-15.4h-1.669zM8.8 51.275h5.336l.012.114v.078a2.682 2.682 0 0 1-5.364-.041zm.176-1.686.5-4.85h3.97l.509 4.85zm6.152-4.85h4.106l1.722 4.85h-5.32zm-11.431 0H7.8l-.5 4.85H1.977zm-1.95 6.536h5.377v.015h.01a.793.793 0 0 0-.018.09 2.684 2.684 0 1 1-5.368 0zm17.681 11.831H3.506v-7.435a4.285 4.285 0 0 0 4.447-1.7 4.321 4.321 0 0 0 7.035 0 4.336 4.336 0 0 0 3.512 1.806 4.4 4.4 0 0 0 .926-.106zm1.76-11.636a2.684 2.684 0 0 1-5.367-.086.829.829 0 0 0-.018-.092h.01v-.015h5.377v.195" transform="translate(.13 -9.552)"/>
                        <path id="패스_2568" data-name="패스 2568" class="cls-6" d="M5.158 14.748a2.969 2.969 0 0 1 2.949-2.98h24.737v-1.686H8.108a4.648 4.648 0 0 0-4.618 4.666v19.714h1.668z" transform="translate(-.93 -2.979)"/>
                        <path id="사각형_530" data-name="사각형 530" class="cls-6" transform="translate(39.162 36.77)" d="M0 0h1.911v1.931H0z"/>
                        <path id="사각형_531" data-name="사각형 531" class="cls-6" transform="translate(46.804 36.77)" d="M0 0h1.911v1.931H0z"/>
                        <path id="사각형_532" data-name="사각형 532" class="cls-6" transform="translate(42.983 36.77)" d="M0 0h1.911v1.931H0z"/>
                        <path id="패스_2569" data-name="패스 2569" class="cls-6" d="M59.605 21.562a10.7 10.7 0 0 0 10.631-10.741v-.114A10.735 10.735 0 0 0 59.723.093c-.04 0-.077-.014-.117-.014-.02 0-.038.006-.057.006-.057 0-.112-.007-.169-.006a10.742 10.742 0 0 0 .225 21.483m-6.949-4.84h3.022a11.878 11.878 0 0 0 1.07 2.723 9.055 9.055 0 0 1-4.093-2.723m7.013 3.143h-.1c-.689-.042-1.541-1.178-2.154-3.147H61.8c-.606 1.947-1.445 3.077-2.13 3.143M57 15.036a21.606 21.606 0 0 1-.369-3.4h5.959a21.527 21.527 0 0 1-.369 3.4zm5.512 4.321a12 12 0 0 0 1.024-2.635h2.843a9.064 9.064 0 0 1-3.867 2.635m5.012-4.321h-3.619a24.141 24.141 0 0 0 .349-3.4h4.269a8.994 8.994 0 0 1-1 3.4m.016-8.436a8.962 8.962 0 0 1 .988 3.342h-4.274a24.09 24.09 0 0 0-.348-3.342zM66.39 4.918h-2.858A11.968 11.968 0 0 0 62.5 2.267a9.025 9.025 0 0 1 3.89 2.651m-6.785-3.153c.7 0 1.569 1.148 2.193 3.153h-4.386c.624-2.006 1.5-3.153 2.193-3.153m2.61 4.835a21.448 21.448 0 0 1 .368 3.342h-5.956A21.449 21.449 0 0 1 57 6.6zm-5.468-4.4a11.868 11.868 0 0 0-1.067 2.718h-3.032a9.067 9.067 0 0 1 4.1-2.717M51.5 6.6h3.8a24.3 24.3 0 0 0-.348 3.342H50.5a8.987 8.987 0 0 1 1-3.342m-1.011 5.028h4.464a24.24 24.24 0 0 0 .348 3.4H51.5a9 9 0 0 1-1-3.4" transform="translate(-14.994 .129)"/>
                    </g>
                </g>
            </g>
        </g>
    </g>
</svg>
