<svg xmlns="http://www.w3.org/2000/svg" width="100" height="100" viewBox="0 0 100 100">
    <defs>
        <clipPath id="clip-path">
            <path id="사각형_570" data-name="사각형 570" class="cls-1" transform="translate(.273 .273)" d="M0 0h54v54H0z"/>
        </clipPath>
        <clipPath id="clip-path-3">
            <path id="사각형_565" data-name="사각형 565" class="cls-1" d="M0 0h10.9v10.9H0z"/>
        </clipPath>
        <clipPath id="clip-path-4">
            <path id="사각형_566" data-name="사각형 566" class="cls-1" d="M0 0h7.108v7.108H0z"/>
        </clipPath>
        <linearGradient id="linear-gradient" y1="1" x2="1" y2="1" gradientUnits="objectBoundingBox">
            <stop offset="0" stop-color="#00baff"/>
            <stop offset="1" stop-color="#329efe"/>
        </linearGradient>
        <style>
            .cls-1{fill:none}.cls-3{clip-path:url(#clip-path)}.cls-4{fill:#fff}.cls-5{opacity:.5}.cls-7{clip-path:url(#clip-path-4)}
        </style>
    </defs>
    <g id="business_icon_04_w" transform="translate(-1015 -1493)">
        <circle id="타원_8" data-name="타원 8" cx="50" cy="50" r="50" transform="translate(1015 1493)" style="fill:url(#linear-gradient)"/>
        <g id="그룹_459" data-name="그룹 459" transform="translate(1037.727 1515.727)">
            <g id="그룹_458" data-name="그룹 458" class="cls-3">
                <g id="그룹_457" data-name="그룹 457">
                    <g id="그룹_456" data-name="그룹 456" class="cls-3">
                        <path id="패스_2582" data-name="패스 2582" class="cls-4" d="M47.755 29.582a3.506 3.506 0 0 1-.118-.861 3.545 3.545 0 0 1 .117-.863h-3.485V23.3h-2.831a19.725 19.725 0 0 0 .447-4.4c0-.153-.007-.3-.01-.457h5.88a3.22 3.22 0 0 1 0-1.724h-5.987a20.551 20.551 0 0 0-1.1-4.854h3.602V7.307h3.485a3.529 3.529 0 0 1-.117-.861 3.528 3.528 0 0 1 .118-.864h-5.21v4.558h-2.595C37.147 4.183 31.578.112 25.178.112a15.168 15.168 0 0 0-8.056 2.352H13.144a1.529 1.529 0 0 0-1.526 1.527v1.073a12.881 12.881 0 0 0-2.874 1.194l-.76-.758a1.563 1.563 0 0 0-2.159 0L3.033 8.287a1.529 1.529 0 0 0 0 2.161l.763.761a12.848 12.848 0 0 0-1.196 2.87H1.527A1.529 1.529 0 0 0 0 15.61v3.945a1.53 1.53 0 0 0 1.527 1.528H2.6a12.92 12.92 0 0 0 1.2 2.874l-.763.763a1.529 1.529 0 0 0 0 2.161l2.789 2.79a1.532 1.532 0 0 0 2.159 0l.763-.764a12.835 12.835 0 0 0 2.87 1.193v1.076a1.529 1.529 0 0 0 1.526 1.524h.733c.417.393 3.2 3.12 3.7 6.006h-.863a.862.862 0 0 0-.861.862v6.358a8.934 8.934 0 0 0 8.922 8.926h.854a8.935 8.935 0 0 0 8.922-8.926v-6.353a.862.862 0 0 0-.862-.862h-.909c.539-3.1 3.72-6.028 3.8-6.1a19.737 19.737 0 0 0 4.4-7.585h1.562v4.558zM13.34 30.976v-2.244l-.676-.149a11.158 11.158 0 0 1-3.592-1.493l-.583-.371L6.9 28.308 4.391 25.8l1.588-1.59-.371-.583a11.189 11.189 0 0 1-1.493-3.594l-.149-.675H1.723v-3.551h2.244l.149-.675a11.167 11.167 0 0 1 1.493-3.594l.371-.583-1.588-1.59L6.9 6.854l1.59 1.59.583-.372a11.2 11.2 0 0 1 3.594-1.493l.675-.149V4.186h3.549v2.243l.676.149a11.169 11.169 0 0 1 3.592 1.493l.585.372 1.588-1.59 2.51 2.512-1.588 1.589.371.583a11.167 11.167 0 0 1 1.493 3.594l.149.675h2.242v3.552h-2.246l-.149.675a11.189 11.189 0 0 1-1.493 3.594l-.371.583 1.588 1.59-2.509 2.509-1.589-1.587-.583.371a11.151 11.151 0 0 1-3.592 1.492l-.676.149v2.241zm12.29 22.156h-.854a7.2 7.2 0 0 1-7.128-6.25h15.106a7.2 7.2 0 0 1-7.124 6.25m7.2-12.7v4.724H17.577v-4.721h15.248zM39.658 23.3h-6.151v1.724h5.647a18.252 18.252 0 0 1-3.777 6.354c-.168.148-3.839 3.5-4.348 7.332h-11.7a12.418 12.418 0 0 0-3.076-6.01h.835a1.529 1.529 0 0 0 1.527-1.527V30.1a12.793 12.793 0 0 0 2.871-1.2l.765.765a1.53 1.53 0 0 0 2.158 0l2.79-2.79a1.527 1.527 0 0 0 0-2.159l-.763-.764a12.894 12.894 0 0 0 1.194-2.874h1.075a1.53 1.53 0 0 0 1.527-1.527v-3.944a1.529 1.529 0 0 0-1.527-1.527H27.63a12.852 12.852 0 0 0-1.194-2.871l.763-.763a1.529 1.529 0 0 0 0-2.161L24.411 5.5a1.563 1.563 0 0 0-2.159 0l-.763.763a12.843 12.843 0 0 0-2.873-1.194V3.988a1.522 1.522 0 0 0-.054-.381 13.416 13.416 0 0 1 6.617-1.764c5.449 0 10.226 3.331 12.849 8.3h-4.522v1.724h5.314a18.72 18.72 0 0 1 1.213 4.854h-7.961v1.724h8.078c0 .154.01.308.01.463a18.255 18.255 0 0 1-.5 4.394" transform="translate(0 -.035)"/>
                        <g id="그룹_446" data-name="그룹 446" class="cls-5" transform="translate(9.662 12.097)">
                            <g id="그룹_445" data-name="그룹 445">
                                <g id="그룹_444" data-name="그룹 444" style="clip-path:url(#clip-path-3)">
                                    <path id="패스_2583" data-name="패스 2583" class="cls-4" d="M19.554 28.553A5.45 5.45 0 1 1 25 23.1a5.456 5.456 0 0 1-5.447 5.451m0-9.175a3.725 3.725 0 1 0 3.725 3.724 3.728 3.728 0 0 0-3.724-3.724" transform="translate(-14.1 -17.653)"/>
                                </g>
                            </g>
                        </g>
                        <g id="그룹_449" data-name="그룹 449" class="cls-5" transform="translate(47.637 2.856)">
                            <g id="그룹_448" data-name="그룹 448">
                                <g id="그룹_447" data-name="그룹 447" class="cls-7">
                                    <path id="패스_2584" data-name="패스 2584" class="cls-4" d="M73.071 11.276a3.554 3.554 0 1 1 3.553-3.556 3.557 3.557 0 0 1-3.552 3.554m0-5.383A1.829 1.829 0 1 0 74.9 7.722a1.829 1.829 0 0 0-1.829-1.829" transform="translate(-69.516 -4.168)"/>
                                </g>
                            </g>
                        </g>
                        <g id="그룹_452" data-name="그룹 452" class="cls-5" transform="translate(47.637 13.994)">
                            <g id="그룹_451" data-name="그룹 451">
                                <g id="그룹_450" data-name="그룹 450" class="cls-7">
                                    <path id="패스_2585" data-name="패스 2585" class="cls-4" d="M73.071 27.529a3.554 3.554 0 1 1 3.552-3.555 3.554 3.554 0 0 1-3.552 3.555m0-5.383a1.829 1.829 0 1 0 1.829 1.828 1.829 1.829 0 0 0-1.829-1.829" transform="translate(-69.516 -20.421)"/>
                                </g>
                            </g>
                        </g>
                        <g id="그룹_455" data-name="그룹 455" class="cls-5" transform="translate(47.637 25.13)">
                            <g id="그룹_454" data-name="그룹 454">
                                <g id="그룹_453" data-name="그룹 453" class="cls-7">
                                    <path id="패스_2586" data-name="패스 2586" class="cls-4" d="M73.071 43.78a3.554 3.554 0 1 1 3.552-3.555 3.558 3.558 0 0 1-3.552 3.554m0-5.383a1.829 1.829 0 1 0 1.829 1.83 1.829 1.829 0 0 0-1.829-1.826" transform="translate(-69.516 -36.672)"/>
                                </g>
                            </g>
                        </g>
                    </g>
                </g>
            </g>
        </g>
    </g>
</svg>
