<svg xmlns="http://www.w3.org/2000/svg" width="100" height="100" viewBox="0 0 100 100">
    <defs>
        <clipPath id="clip-path">
            <path id="사각형_564" data-name="사각형 564" class="cls-1" transform="translate(.273 .273)" d="M0 0h54v54H0z"/>
        </clipPath>
        <clipPath id="clip-path-3">
            <path id="사각형_535" data-name="사각형 535" class="cls-1" d="M0 0h3.769v6.775H0z"/>
        </clipPath>
        <clipPath id="clip-path-4">
            <path id="사각형_536" data-name="사각형 536" class="cls-1" d="M0 0h1.788v2.413H0z"/>
        </clipPath>
        <clipPath id="clip-path-5">
            <path id="사각형_537" data-name="사각형 537" class="cls-1" d="M0 0h3.532v6.478H0z"/>
        </clipPath>
        <clipPath id="clip-path-6">
            <path id="사각형_538" data-name="사각형 538" class="cls-1" d="M0 0h5.874v9.565H0z"/>
        </clipPath>
        <clipPath id="clip-path-7">
            <path id="사각형_540" data-name="사각형 540" class="cls-1" d="M0 0h2.454v9.565H0z"/>
        </clipPath>
        <clipPath id="clip-path-8">
            <path id="사각형_541" data-name="사각형 541" class="cls-1" d="M0 0h5.871v9.565H0z"/>
        </clipPath>
        <clipPath id="clip-path-22">
            <path id="사각형_562" data-name="사각형 562" class="cls-1" d="M0 0h2.454v9.564H0z"/>
        </clipPath>
        <linearGradient id="linear-gradient" y1="1" x2="1" y2="1" gradientUnits="objectBoundingBox">
            <stop offset="0" stop-color="#00baff"/>
            <stop offset="1" stop-color="#329efe"/>
        </linearGradient>
        <style>
            .cls-1{fill:none}.cls-3{clip-path:url(#clip-path)}.cls-4{opacity:.5}.cls-6{fill:#fff}.cls-9{clip-path:url(#clip-path-6)}.cls-10{clip-path:url(#clip-path-7)}.cls-11{clip-path:url(#clip-path-8)}
        </style>
    </defs>
    <g id="business_icon_03_w" transform="translate(-450 -1507)">
        <circle id="타원_7" data-name="타원 7" cx="50" cy="50" r="50" transform="translate(450 1507)" style="fill:url(#linear-gradient)"/>
        <g id="그룹_443" data-name="그룹 443" transform="translate(472.727 1529.727)">
            <g id="그룹_442" data-name="그룹 442" class="cls-3">
                <g id="그룹_436" data-name="그룹 436">
                    <g id="그룹_435" data-name="그룹 435" class="cls-3">
                        <g id="그룹_383" data-name="그룹 383" class="cls-4" transform="translate(40.766 14.878)">
                            <g id="그룹_382" data-name="그룹 382">
                                <g id="그룹_381" data-name="그룹 381" style="clip-path:url(#clip-path-3)">
                                    <path id="패스_2570" data-name="패스 2570" class="cls-6" d="M63.929 28.736c0-.048.014-.093.014-.143v-3.7a2.932 2.932 0 0 0-2.931-2.931H61a2.907 2.907 0 0 0-.831.134 18.207 18.207 0 0 1 3.755 6.641" transform="translate(-60.174 -21.961)"/>
                                </g>
                            </g>
                        </g>
                        <g id="그룹_386" data-name="그룹 386" class="cls-4" transform="translate(11.373 14.877)">
                            <g id="그룹_385" data-name="그룹 385">
                                <g id="그룹_384" data-name="그룹 384" style="clip-path:url(#clip-path-4)">
                                    <path id="패스_2571" data-name="패스 2571" class="cls-6" d="M18.575 21.96h-1.788v2.413a18.7 18.7 0 0 1 1.788-2.413" transform="translate(-16.787 -21.96)"/>
                                </g>
                            </g>
                        </g>
                        <g id="그룹_389" data-name="그룹 389" class="cls-4" transform="translate(9.661 32.842)">
                            <g id="그룹_388" data-name="그룹 388">
                                <g id="그룹_387" data-name="그룹 387" style="clip-path:url(#clip-path-5)">
                                    <path id="패스_2572" data-name="패스 2572" class="cls-6" d="M14.261 48.478v3.546a2.932 2.932 0 0 0 2.932 2.932h.007a2.94 2.94 0 0 0 .592-.06 18.208 18.208 0 0 1-3.532-6.418" transform="translate(-14.261 -48.478)"/>
                                </g>
                            </g>
                        </g>
                        <g id="그룹_392" data-name="그룹 392" class="cls-4" transform="translate(9.661)">
                            <g id="그룹_391" data-name="그룹 391">
                                <g id="그룹_390" data-name="그룹 390" class="cls-9">
                                    <path id="패스_2573" data-name="패스 2573" class="cls-6" d="M17.2 2.371a.561.561 0 0 1 .56.56v3.7a.564.564 0 1 1-1.129 0v-3.7a.561.561 0 0 1 .561-.56zM17.2 0h-.007a2.932 2.932 0 0 0-2.932 2.931v3.7a2.932 2.932 0 0 0 2.932 2.932h.007a2.932 2.932 0 0 0 2.934-2.93v-3.7A2.931 2.931 0 0 0 17.2 0" transform="translate(-14.261)"/>
                                </g>
                            </g>
                        </g>
                        <g id="그룹_395" data-name="그룹 395" class="cls-4" transform="translate(21.037)">
                            <g id="그룹_394" data-name="그룹 394">
                                <g id="그룹_393" data-name="그룹 393" class="cls-10">
                                    <path id="사각형_539" data-name="사각형 539" class="cls-6" d="M0 0h2.454v9.565H0z"/>
                                </g>
                            </g>
                        </g>
                        <g id="그룹_398" data-name="그룹 398" class="cls-4" transform="translate(28.992)">
                            <g id="그룹_397" data-name="그룹 397">
                                <g id="그룹_396" data-name="그룹 396" class="cls-11">
                                    <path id="패스_2574" data-name="패스 2574" class="cls-6" d="M45.735 2.371a.561.561 0 0 1 .56.56v3.7a.564.564 0 1 1-1.129 0v-3.7a.561.561 0 0 1 .561-.56zm0-2.371h-.007a2.932 2.932 0 0 0-2.932 2.931v3.7a2.932 2.932 0 0 0 2.932 2.932h.007a2.932 2.932 0 0 0 2.931-2.932v-3.7A2.931 2.931 0 0 0 45.735 0" transform="translate(-42.795)"/>
                                </g>
                            </g>
                        </g>
                        <g id="그룹_401" data-name="그룹 401" class="cls-4" transform="translate(40.37)">
                            <g id="그룹_400" data-name="그룹 400">
                                <g id="그룹_399" data-name="그룹 399" class="cls-10">
                                    <path id="사각형_542" data-name="사각형 542" class="cls-6" d="M0 0h2.454v9.565H0z"/>
                                </g>
                            </g>
                        </g>
                        <g id="그룹_404" data-name="그룹 404" class="cls-4" transform="translate(48.327)">
                            <g id="그룹_403" data-name="그룹 403">
                                <g id="그룹_402" data-name="그룹 402" class="cls-11">
                                    <path id="패스_2575" data-name="패스 2575" class="cls-6" d="M74.274 2.371a.561.561 0 0 1 .56.56v3.7a.564.564 0 1 1-1.129 0v-3.7a.561.561 0 0 1 .561-.56zm0-2.371h-.007a2.932 2.932 0 0 0-2.932 2.931v3.7a2.932 2.932 0 0 0 2.932 2.932h.007A2.932 2.932 0 0 0 77.2 6.632v-3.7A2.931 2.931 0 0 0 74.274 0" transform="translate(-71.334)"/>
                                </g>
                            </g>
                        </g>
                        <g id="그룹_407" data-name="그룹 407" class="cls-4" transform="translate(0 14.878)">
                            <g id="그룹_406" data-name="그룹 406">
                                <g id="그룹_405" data-name="그룹 405" class="cls-11">
                                    <path id="패스_2576" data-name="패스 2576" class="cls-6" d="M2.94 24.332a.561.561 0 0 1 .56.56v3.7a.564.564 0 0 1-1.129 0v-3.7a.561.561 0 0 1 .561-.56zm0-2.371h-.008A2.932 2.932 0 0 0 0 24.892v3.7a2.932 2.932 0 0 0 2.932 2.932h.008a2.932 2.932 0 0 0 2.931-2.932v-3.7a2.931 2.931 0 0 0-2.931-2.931" transform="translate(0 -21.961)"/>
                                </g>
                            </g>
                        </g>
                        <g id="그룹_410" data-name="그룹 410" class="cls-4" transform="translate(50.035 14.877)">
                            <g id="그룹_409" data-name="그룹 409">
                                <g id="그룹_408" data-name="그룹 408" class="cls-10">
                                    <path id="사각형_546" data-name="사각형 546" class="cls-6" d="M0 0h2.454v9.565H0z"/>
                                </g>
                            </g>
                        </g>
                        <g id="그룹_413" data-name="그룹 413" class="cls-4" transform="translate(1.709 29.755)">
                            <g id="그룹_412" data-name="그룹 412">
                                <g id="그룹_411" data-name="그룹 411" class="cls-10">
                                    <path id="사각형_548" data-name="사각형 548" class="cls-6" d="M0 0h2.454v9.565H0z"/>
                                </g>
                            </g>
                        </g>
                        <g id="그룹_416" data-name="그룹 416" class="cls-4" transform="translate(48.327 29.756)">
                            <g id="그룹_415" data-name="그룹 415">
                                <g id="그룹_414" data-name="그룹 414" class="cls-11">
                                    <path id="패스_2577" data-name="패스 2577" class="cls-6" d="M74.274 46.293a.561.561 0 0 1 .56.56v3.7a.564.564 0 1 1-1.129 0v-3.7a.562.562 0 0 1 .561-.56zm0-2.371h-.007a2.932 2.932 0 0 0-2.932 2.931v3.7a2.932 2.932 0 0 0 2.932 2.932h.007a2.932 2.932 0 0 0 2.926-2.931v-3.7a2.931 2.931 0 0 0-2.931-2.931" transform="translate(-71.334 -43.922)"/>
                                </g>
                            </g>
                        </g>
                        <g id="그룹_419" data-name="그룹 419" class="cls-4" transform="translate(11.373 44.633)">
                            <g id="그룹_418" data-name="그룹 418">
                                <g id="그룹_417" data-name="그룹 417" class="cls-10">
                                    <path id="사각형_551" data-name="사각형 551" class="cls-6" d="M0 0h2.454v9.565H0z"/>
                                </g>
                            </g>
                        </g>
                        <g id="그룹_422" data-name="그룹 422" class="cls-4" transform="translate(0 44.633)">
                            <g id="그룹_421" data-name="그룹 421">
                                <g id="그룹_420" data-name="그룹 420" class="cls-11">
                                    <path id="패스_2578" data-name="패스 2578" class="cls-6" d="M2.94 68.253a.561.561 0 0 1 .56.561v3.7a.564.564 0 1 1-1.129 0v-3.7a.562.562 0 0 1 .561-.561zm0-2.371h-.008A2.932 2.932 0 0 0 0 68.814v3.7a2.931 2.931 0 0 0 2.931 2.932h.009a2.931 2.931 0 0 0 2.931-2.93v-3.7a2.931 2.931 0 0 0-2.931-2.934" transform="translate(0 -65.882)"/>
                                </g>
                            </g>
                        </g>
                        <g id="그룹_425" data-name="그룹 425" class="cls-4" transform="translate(30.701 44.633)">
                            <g id="그룹_424" data-name="그룹 424">
                                <g id="그룹_423" data-name="그룹 423" class="cls-10">
                                    <path id="사각형_554" data-name="사각형 554" class="cls-6" d="M0 0h2.454v9.565H0z"/>
                                </g>
                            </g>
                        </g>
                        <g id="그룹_428" data-name="그룹 428" class="cls-4" transform="translate(19.328 44.633)">
                            <g id="그룹_427" data-name="그룹 427">
                                <g id="그룹_426" data-name="그룹 426" class="cls-9">
                                    <path id="패스_2579" data-name="패스 2579" class="cls-6" d="M31.47 68.253a.561.561 0 0 1 .56.561v3.7a.564.564 0 1 1-1.129 0v-3.7a.562.562 0 0 1 .561-.561zm0-2.371h-.007a2.932 2.932 0 0 0-2.932 2.932v3.7a2.931 2.931 0 0 0 2.931 2.932h.009a2.931 2.931 0 0 0 2.929-2.927v-3.705a2.931 2.931 0 0 0-2.931-2.932" transform="translate(-28.53 -65.882)"/>
                                </g>
                            </g>
                        </g>
                        <g id="그룹_431" data-name="그룹 431" class="cls-4" transform="translate(50.035 44.633)">
                            <g id="그룹_430" data-name="그룹 430">
                                <g id="그룹_429" data-name="그룹 429" class="cls-10">
                                    <path id="사각형_557" data-name="사각형 557" class="cls-6" d="M0 0h2.454v9.565H0z"/>
                                </g>
                            </g>
                        </g>
                        <g id="그룹_434" data-name="그룹 434" class="cls-4" transform="translate(38.665 44.633)">
                            <g id="그룹_433" data-name="그룹 433">
                                <g id="그룹_432" data-name="그룹 432" class="cls-11">
                                    <path id="패스_2580" data-name="패스 2580" class="cls-6" d="M60.009 68.253a.561.561 0 0 1 .56.561v3.7a.564.564 0 1 1-1.129 0v-3.7a.562.562 0 0 1 .56-.561zm0-2.371a2.932 2.932 0 0 0-2.932 2.932v3.7A2.931 2.931 0 0 0 60 75.447h.009a2.931 2.931 0 0 0 2.931-2.93v-3.7a2.931 2.931 0 0 0-2.931-2.932" transform="translate(-57.072 -65.882)"/>
                                </g>
                            </g>
                        </g>
                        <path id="패스_2581" data-name="패스 2581" class="cls-6" d="M30.963 11.485h-.185a18.943 18.943 0 1 0 .182 0m-.081 36.94h-.049c-1.861-.03-3.847-2.793-5.1-7.336H36c-1.253 4.555-3.247 7.32-5.113 7.337m-5.558-9.031a40.733 40.733 0 0 1-.845-7.8h12.771a40.732 40.732 0 0 1-.846 7.8zm-12.012-7.8h9.473a42.875 42.875 0 0 0 .809 7.8h-8.071a17.517 17.517 0 0 1-2.215-7.8m17.556-18.417h.014c1.866.014 3.862 2.78 5.114 7.339H25.739C27 15.949 29 13.178 30.869 13.178m5.541 9.033a40.636 40.636 0 0 1 .844 7.687H24.48a40.685 40.685 0 0 1 .845-7.687zM22.787 29.9h-9.472a17.518 17.518 0 0 1 2.214-7.687h8.065a42.807 42.807 0 0 0-.807 7.687m16.162 1.694h9.571a17.514 17.514 0 0 1-2.217 7.8H38.14a42.942 42.942 0 0 0 .809-7.8m0-1.694a42.8 42.8 0 0 0-.808-7.687h8.145a17.56 17.56 0 0 1 2.23 7.687zm6.254-9.38h-7.454a18.209 18.209 0 0 0-3.173-6.947A17.668 17.668 0 0 1 45.2 20.517m-18.06-6.931a18.26 18.26 0 0 0-3.158 6.931h-7.374a17.627 17.627 0 0 1 10.534-6.931m-10.533 27.5h7.377a18.258 18.258 0 0 0 3.158 6.929 17.627 17.627 0 0 1-10.535-6.929m17.96 6.958a18.185 18.185 0 0 0 3.181-6.958h7.474a17.627 17.627 0 0 1-10.655 6.958" transform="translate(-3.741 -3.704)"/>
                    </g>
                </g>
                <g id="그룹_441" data-name="그룹 441">
                    <g id="그룹_440" data-name="그룹 440" class="cls-3">
                        <g id="그룹_439" data-name="그룹 439" class="cls-4" transform="translate(1.709)">
                            <g id="그룹_438" data-name="그룹 438">
                                <g id="그룹_437" data-name="그룹 437" style="clip-path:url(#clip-path-22)">
                                    <path id="사각형_561" data-name="사각형 561" class="cls-6" d="M0 0h2.454v9.564H0z"/>
                                </g>
                            </g>
                        </g>
                    </g>
                </g>
            </g>
        </g>
    </g>
</svg>
