<svg xmlns="http://www.w3.org/2000/svg" width="100" height="100" viewBox="0 0 100 100">
    <defs>
        <clipPath id="clip-path">
            <path id="사각형_296" data-name="사각형 296" transform="translate(-.002 -.002)" style="fill:none" d="M0 0h100v100H0z"/>
        </clipPath>
        <style>
            .cls-2{fill:#222}.cls-4{fill:#9ce7ff}
        </style>
    </defs>
    <g id="Solution_ic_01" transform="translate(.002 .002)">
        <path id="사각형_280" data-name="사각형 280" class="cls-2" transform="translate(8.052 73.121)" d="M0 0h84.274v3.084H0z"/>
        <path id="사각형_281" data-name="사각형 281" class="cls-2" transform="translate(69.245 78.554)" d="M0 0h3.436v3.405H0z"/>
        <path id="사각형_282" data-name="사각형 282" class="cls-2" transform="translate(82.991 78.554)" d="M0 0h3.436v3.405H0z"/>
        <path id="사각형_283" data-name="사각형 283" class="cls-2" transform="translate(76.118 78.554)" d="M0 0h3.436v3.405H0z"/>
        <g id="그룹_154" data-name="그룹 154">
            <g id="그룹_153" data-name="그룹 153" style="clip-path:url(#clip-path)">
                <path id="패스_224" data-name="패스 224" class="cls-2" d="M83.219 70.609H12.45a8.28 8.28 0 0 1-8.308-8.233V29.525h3.112v32.851a5.178 5.178 0 0 0 5.2 5.149h70.765a5.178 5.178 0 0 0 5.2-5.149V29.525h3.112v32.851a8.28 8.28 0 0 1-8.308 8.233" transform="translate(2.354 16.783)"/>
                <path id="사각형_284" data-name="사각형 284" class="cls-2" transform="translate(29.893 97.296)" d="M0 0h45.046v3.084H0z"/>
                <path id="패스_225" data-name="패스 225" class="cls-2" d="M56.664 69.825H22.54V53.753h34.124zm-31.011-3.084h27.9v-9.9h-27.9z" transform="translate(12.813 30.555)"/>
                <path id="사각형_285" data-name="사각형 285" class="cls-4" transform="translate(15.495 52.965)" d="M0 0h20.132v15.418H0z"/>
                <path id="사각형_286" data-name="사각형 286" class="cls-4" transform="translate(68.363 52.965)" d="M0 0h17.516v3.084H0z"/>
                <path id="사각형_287" data-name="사각형 287" class="cls-4" transform="translate(39.867 59.132)" d="M0 0h46.013v3.084H0z"/>
                <path id="사각형_288" data-name="사각형 288" class="cls-4" transform="translate(39.867 65.299)" d="M0 0h46.013v3.084H0z"/>
                <path id="패스_226" data-name="패스 226" d="M65.854 21.762H62.7a21.426 21.426 0 0 0-2.9-6.92l2.237-2.216a1.181 1.181 0 0 0 0-1.681L57 5.957a1.208 1.208 0 0 0-1.7 0l-2.232 2.216A21.9 21.9 0 0 0 46.084 5.3V2.172a1.2 1.2 0 0 0-1.2-1.189h-7.119a1.2 1.2 0 0 0-1.2 1.189V5.3a21.881 21.881 0 0 0-6.983 2.875l-2.236-2.218a1.21 1.21 0 0 0-1.7 0l-5.033 4.988a1.181 1.181 0 0 0 0 1.681l2.237 2.216a21.461 21.461 0 0 0-2.9 6.92h-3.155a1.2 1.2 0 0 0-1.2 1.189V30a1.2 1.2 0 0 0 1.2 1.19h3.156a21.438 21.438 0 0 0 2.9 6.918l-2.237 2.216a1.182 1.182 0 0 0 0 1.683L25.647 47a1.21 1.21 0 0 0 1.7 0l2.237-2.216a21.877 21.877 0 0 0 6.983 2.873v3.126a1.2 1.2 0 0 0 1.2 1.19h7.119a1.2 1.2 0 0 0 1.2-1.19v-3.126a21.9 21.9 0 0 0 6.984-2.873L55.3 47a1.208 1.208 0 0 0 1.7 0l5.033-4.988a1.182 1.182 0 0 0 0-1.683L59.8 38.113a21.4 21.4 0 0 0 2.9-6.918h3.156a1.2 1.2 0 0 0 1.2-1.19v-7.054a1.194 1.194 0 0 0-1.2-1.189" transform="translate(8.865 .559)" style="fill:#fff"/>
                <path id="패스_227" data-name="패스 227" class="cls-2" d="M45.448 54.073h-7.119a2.747 2.747 0 0 1-2.756-2.731V49.42a23.31 23.31 0 0 1-5.185-2.136l-1.379 1.365a2.781 2.781 0 0 1-3.9 0l-5.033-4.988a2.71 2.71 0 0 1 0-3.863l1.377-1.365a22.892 22.892 0 0 1-2.153-5.138h-1.943a2.746 2.746 0 0 1-2.757-2.731v-7.055a2.747 2.747 0 0 1 2.754-2.731H19.3a22.922 22.922 0 0 1 2.157-5.138l-1.377-1.366a2.708 2.708 0 0 1 0-3.861l5.033-4.988a2.778 2.778 0 0 1 3.9 0l1.38 1.368a23.241 23.241 0 0 1 5.185-2.138V2.732A2.749 2.749 0 0 1 38.329 0h7.119A2.746 2.746 0 0 1 48.2 2.732v1.922a23.283 23.283 0 0 1 5.187 2.138l1.377-1.366a2.777 2.777 0 0 1 3.9 0l5.036 4.987a2.711 2.711 0 0 1 0 3.863l-1.38 1.364a22.923 22.923 0 0 1 2.157 5.138h1.942a2.747 2.747 0 0 1 2.756 2.731v7.055a2.746 2.746 0 0 1-2.756 2.731h-1.943a22.893 22.893 0 0 1-2.157 5.138L63.7 39.8a2.711 2.711 0 0 1 0 3.863l-5.033 4.986a2.778 2.778 0 0 1-3.9 0l-1.379-1.366A23.352 23.352 0 0 1 48.2 49.42v1.923a2.745 2.745 0 0 1-2.754 2.731m-6.761-3.084h6.405v-4.01l1.219-.268a20.248 20.248 0 0 0 6.485-2.669l1.052-.663 2.867 2.84 4.531-4.489-2.867-2.842.67-1.043a19.905 19.905 0 0 0 2.695-6.426l.27-1.208h4.05v-6.35h-4.05l-.27-1.208a19.905 19.905 0 0 0-2.695-6.426l-.67-1.043 2.867-2.842-4.53-4.488-2.867 2.845-1.052-.665a20.248 20.248 0 0 0-6.485-2.669l-1.22-.272v-4.01h-6.405v4.01l-1.219.268a20.248 20.248 0 0 0-6.485 2.669l-1.052.665-2.868-2.841-4.531 4.49 2.867 2.84-.67 1.043a19.906 19.906 0 0 0-2.695 6.426l-.27 1.208h-4.047v6.349h4.048l.27 1.208a19.906 19.906 0 0 0 2.695 6.426l.67 1.043-2.868 2.842 4.531 4.489 2.867-2.84 1.052.663a20.248 20.248 0 0 0 6.485 2.669l1.219.268z" transform="translate(8.301)"/>
                <path id="패스_228" data-name="패스 228" class="cls-2" d="M38.237 34.928H29.08V7.487h9.157zm-6.043-3.084h2.933V10.571h-2.934z" transform="translate(16.53 4.256)"/>
                <path id="패스_229" data-name="패스 229" class="cls-2" d="M45.595 32.722h-9.157V11.369h9.157zm-6.045-3.084h2.933V14.453H39.55z" transform="translate(20.713 6.463)"/>
                <path id="패스_230" data-name="패스 230" class="cls-2" d="M30.88 31.564h-9.157V13.406h9.157zm-6.045-3.084h2.933V16.49h-2.933z" transform="translate(12.348 7.62)"/>
                <path id="사각형_289" data-name="사각형 289" class="cls-2" transform="translate(31.094 36.101)" d="M0 0h38.19v3.084H0z"/>
                <path id="패스_231" data-name="패스 231" class="cls-2" d="M4.552 16.449A4.512 4.512 0 1 1 9.1 11.938a4.536 4.536 0 0 1-4.553 4.511m0-5.94a1.428 1.428 0 1 0 1.441 1.429 1.436 1.436 0 0 0-1.436-1.428" transform="translate(0 4.221)"/>
                <path id="사각형_290" data-name="사각형 290" class="cls-2" transform="translate(7.55 14.618)" d="M0 0h15.916v3.084H0z"/>
                <path id="패스_232" data-name="패스 232" class="cls-2" d="M4.552 30.372A4.512 4.512 0 1 1 9.1 25.86a4.537 4.537 0 0 1-4.553 4.512m0-5.94a1.428 1.428 0 1 0 1.446 1.428 1.434 1.434 0 0 0-1.441-1.427" transform="translate(0 12.136)"/>
                <path id="사각형_291" data-name="사각형 291" class="cls-2" transform="translate(7.55 36.454)" d="M0 0h15.916v3.084H0z"/>
                <path id="패스_233" data-name="패스 233" class="cls-2" d="M8.374 23.41a4.512 4.512 0 1 1 4.553-4.51 4.536 4.536 0 0 1-4.553 4.51m0-5.94a1.428 1.428 0 1 0 1.441 1.43 1.436 1.436 0 0 0-1.441-1.429" transform="translate(2.173 8.178)"/>
                <path id="사각형_292" data-name="사각형 292" class="cls-2" transform="translate(13.545 25.536)" d="M0 0h10.915v3.084H0z"/>
                <path id="패스_234" data-name="패스 234" class="cls-2" d="M62.747 16.46a4.512 4.512 0 1 1 4.553-4.511 4.536 4.536 0 0 1-4.553 4.511m0-5.94a1.428 1.428 0 1 0 1.441 1.429 1.436 1.436 0 0 0-1.441-1.429" transform="translate(33.08 4.227)"/>
                <path id="사각형_293" data-name="사각형 293" class="cls-2" transform="translate(76.911 14.634)" d="M0 0h15.918v3.084H0z"/>
                <path id="패스_235" data-name="패스 235" class="cls-2" d="M62.747 30.382A4.512 4.512 0 1 1 67.3 25.87a4.537 4.537 0 0 1-4.553 4.512m0-5.94a1.428 1.428 0 1 0 1.441 1.427 1.434 1.434 0 0 0-1.441-1.427" transform="translate(33.08 12.141)"/>
                <path id="사각형_294" data-name="사각형 294" class="cls-2" transform="translate(76.911 36.469)" d="M0 0h15.918v3.084H0z"/>
                <path id="패스_236" data-name="패스 236" class="cls-2" d="M58.925 23.421a4.512 4.512 0 1 1 4.553-4.511 4.536 4.536 0 0 1-4.553 4.511m0-5.94a1.428 1.428 0 1 0 1.441 1.429 1.436 1.436 0 0 0-1.441-1.429" transform="translate(30.908 8.184)"/>
                <path id="사각형_295" data-name="사각형 295" class="cls-2" transform="translate(75.919 25.553)" d="M0 0h10.916v3.084H0z"/>
            </g>
        </g>
    </g>
</svg>
