<svg id="Solution_ic_03" xmlns="http://www.w3.org/2000/svg" width="84.845" height="100" viewBox="0 0 84.845 100">
    <defs>
        <clipPath id="clip-path">
            <path id="사각형_310" data-name="사각형 310" style="fill:none" d="M0 0h84.845v100H0z"/>
        </clipPath>
        <style>
            .cls-3{fill:#222}
        </style>
    </defs>
    <g id="그룹_163" data-name="그룹 163" style="clip-path:url(#clip-path)">
        <path id="패스_258" data-name="패스 258" class="cls-3" d="M50.382 71.827H25.97a1.561 1.561 0 0 1-1.562-1.562c0-5.386-6.9-10.977-6.973-11.033a30.62 30.62 0 1 1 41.572-.075c-.158.131-7.061 5.722-7.061 11.108a1.562 1.562 0 0 1-1.562 1.563M27.4 68.7h21.548c1.019-6.258 7.713-11.667 8.019-11.911a27.165 27.165 0 0 0 8.708-20.039 27.5 27.5 0 1 0-55 0 27.21 27.21 0 0 0 8.8 20.116c.225.173 6.913 5.577 7.93 11.834" transform="translate(4.247 3.446)"/>
        <path id="패스_259" data-name="패스 259" class="cls-3" d="M35.729 51.351h-3.843a2.531 2.531 0 0 1-2.528-2.527v-2.917a13.485 13.485 0 0 1-1.628-.677l-2.064 2.064a2.528 2.528 0 0 1-3.573 0l-2.719-2.719a2.529 2.529 0 0 1 0-3.573l2.064-2.063a13.953 13.953 0 0 1-.675-1.628h-2.919a2.53 2.53 0 0 1-2.527-2.53v-3.843a2.53 2.53 0 0 1 2.527-2.527h2.919a13.689 13.689 0 0 1 .675-1.628l-2.064-2.064a2.531 2.531 0 0 1 0-3.573l2.719-2.717a2.528 2.528 0 0 1 3.573 0l2.064 2.062a13.688 13.688 0 0 1 1.628-.675V16.9a2.531 2.531 0 0 1 2.528-2.527h3.844a2.53 2.53 0 0 1 2.526 2.527v2.919a13.688 13.688 0 0 1 1.628.675l2.064-2.062a2.51 2.51 0 0 1 1.787-.741 2.506 2.506 0 0 1 1.786.742l2.717 2.716a2.528 2.528 0 0 1 0 3.573l-2.064 2.064a13.433 13.433 0 0 1 .675 1.628h2.921a2.53 2.53 0 0 1 2.53 2.524v3.844a2.53 2.53 0 0 1-2.527 2.53h-2.922a13.432 13.432 0 0 1-.675 1.628L48.24 41a2.527 2.527 0 0 1 0 3.577l-2.717 2.716a2.5 2.5 0 0 1-1.784.741 2.51 2.51 0 0 1-1.787-.741l-2.068-2.063a13.486 13.486 0 0 1-1.628.677v2.917a2.53 2.53 0 0 1-2.527 2.527m-3.247-3.125h2.648v-4.719l1.194-.289a10.574 10.574 0 0 0 3.022-1.255l1.05-.641 3.339 3.341 1.872-1.875-3.339-3.337.641-1.05a10.509 10.509 0 0 0 1.253-3.02l.289-1.194h4.72v-2.65h-4.72l-.289-1.194a10.509 10.509 0 0 0-1.253-3.02l-.641-1.05 3.339-3.341-1.871-1.872L40.4 24.4l-1.048-.639a10.61 10.61 0 0 0-3.022-1.253l-1.2-.289V17.5h-2.647v4.72l-1.2.289a10.583 10.583 0 0 0-3.02 1.253l-1.05.641-3.333-3.343-1.873 1.872 3.339 3.341-.641 1.05a10.553 10.553 0 0 0-1.253 3.02l-.289 1.194h-4.72v2.65h4.719l.291 1.192A10.564 10.564 0 0 0 24.7 38.4l.641 1.05-3.339 3.336 1.873 1.875 3.339-3.341 1.05.641a10.591 10.591 0 0 0 3.02 1.255l1.194.289zm13.548-5.859zm-24.45 0" transform="translate(8.616 8.084)"/>
        <path id="패스_260" data-name="패스 260" d="M35.643 28.453a6.245 6.245 0 1 1-6.243-6.244 6.244 6.244 0 0 1 6.244 6.244" transform="translate(13.024 12.493)" style="fill:#9ce7ff"/>
        <path id="패스_261" data-name="패스 261" class="cls-3" d="M33.684 74.027h-1.461a15.406 15.406 0 0 1-15.389-15.388v-10.9a1.562 1.562 0 0 1 1.566-1.564h29.111a1.562 1.562 0 0 1 1.563 1.563v10.9a15.407 15.407 0 0 1-15.39 15.389M19.959 49.3v9.339A12.277 12.277 0 0 0 32.223 70.9h1.461a12.277 12.277 0 0 0 12.264-12.261V49.3z" transform="translate(9.469 25.973)"/>
        <path id="패스_262" data-name="패스 262" class="cls-3" d="M46.3 56.376H18.958a1.563 1.563 0 0 1 0-3.125H46.3a1.563 1.563 0 0 1 0 3.125" transform="translate(9.785 29.954)"/>
        <path id="패스_263" data-name="패스 263" class="cls-3" d="M21.166 79.144a42.426 42.426 0 1 1 63.68-36.72 42.144 42.144 0 0 1-12.425 30l-2.209-2.209A39.3 39.3 0 1 0 3.125 42.423a39.457 39.457 0 0 0 19.609 34.018z"/>
        <path id="패스_264" data-name="패스 264" class="cls-3" d="M46.852 49.854a1.559 1.559 0 0 1-1.55-1.366l-.808-6.341a1.564 1.564 0 0 1 1.354-1.747 1.584 1.584 0 0 1 1.747 1.353l.609 4.791 4.791-.611a1.563 1.563 0 0 1 .394 3.1l-6.339.806a1.664 1.664 0 0 1-.2.012" transform="translate(25.021 22.72)"/>
    </g>
</svg>
